<svg xmlns="http://www.w3.org/2000/svg" fill="none" viewBox="0 0 398 287">
  <path fill="#51D66A" d="M488.8 288.2a202 202 0 0 0-110.1-179 201 201 0 0 0-277 102.1 202 202 0 0 0 122.6 269.1l-.3-45.2a159 159 0 0 1-94.6-130 159.6 159.6 0 0 1 145-174.7 158.7 158.7 0 0 1 144.8 69.4 159.5 159.5 0 0 1 27 78.8l-184 1 .1 42.3 223.9-1a203 203 0 0 0 2.6-32.8Z"/>
  <path fill="#51D66A" d="M674.3 530.2 288.5 532A243.7 243.7 0 0 1 59 374.2a245 245 0 0 1 67.3-270.7 243.9 243.9 0 0 1 378.5 73.2A245 245 0 0 1 529 320.9l42.9-.2A287.2 287.2 0 0 0 419 33.3a285.6 285.6 0 0 0-322.4 41 286.8 286.8 0 0 0 192.3 500.3l428-2-.3-42.4h-42.3Z"/>
</svg>
