<svg xmlns="http://www.w3.org/2000/svg" fill="none" viewBox="0 0 375 231">
  <path fill="#51D66A" d="M331 206.5a144.2 144.2 0 0 0-78.6-128 143.5 143.5 0 0 0-197.8 73 144.3 144.3 0 0 0 87.5 192.2l-.1-32.3a113.5 113.5 0 0 1-58-151.5 113.7 113.7 0 0 1 152.3-55.4 113.6 113.6 0 0 1 64.2 95.2l-131.4.6.2 30.3 159.8-.8a140 140 0 0 0 2-23.3Z"/>
  <path fill="#51D66A" d="M463.5 379.2 188 380.5A174 174 0 0 1 24 268 175 175 0 0 1 72 74.6a174.1 174.1 0 0 1 287.6 155.2l30.6-.2a205 205 0 0 0-109-205.2 204 204 0 0 0-292.5 134A205.1 205.1 0 0 0 72 375.2a204 204 0 0 0 116.2 35.6l305.5-1.4-.1-30.3h-30.2Z"/>
</svg>
