<svg xmlns="http://www.w3.org/2000/svg" fill="none" viewBox="0 0 466 274">
  <g fill="#7AE08D" clip-path="url(#a)">
    <path d="M27.6 193.2c-.2-.3-.5-1.9-.7-3.6-.2-1.8-.4-3.3-.6-3.4l-1.7-.8c-1.1-.4-1.6-.8-2.4-2.1-1-1.5-1-1.6-.7-2.7.2-.6.5-1.2.7-1.2.6-.3 2.7.6 4.2 1.7.9.7 1.6 1 2.2 1 .8 0 1.2.2 2 1.3 1 1.1 1 1.4 1 3 0 2.8-.3 4-1.7 5.5-1.5 1.6-1.9 1.8-2.3 1.3Zm-2.8-23.7c-.3-.2-.3-.5 0-1.4.5-1.8.2-2-1.9-2h-1.8l-.2-1.6c-.2-1.2-.3-1.4-1.2-1.9-.6-.2-1-.6-1-.8 0-.5 2.2-3.8 2.6-3.8.1 0 .3.2.4.5.3.9 4.1 1.8 5 1.2.2-.3 1.5-.5 3-.6 2.3-.1 2.5-.1 2.6.4a3 3 0 0 1-.5 3c-1 1.2-1.5 3.4-1 4 .3.3.2.4-.2.4s-1.1.6-1.8 1.4c-1.1 1.3-1.4 1.5-2.4 1.5-.7 0-1.4-.2-1.6-.3Zm57.2-2-2-1.3-1 .6c-1.6 1-3.1.8-5-.3-1.1-.8-1.4-1-1.3-1.6.1-.6-.2-1.1-1.4-2.3-1.5-1.5-1.5-1.6-2.2-1.2-.8.4-2.3.2-3-.2-.7-.4 1-1.9 3.6-3.2l3-1.6c.7-.3 1.7-.4 3.3-.4 3 0 4.3.5 5.7 2.5 2 2.8 2.5 3.3 5 4 2.2.7 2.4.7 2.9.2.6-.5 2-.6 2 0 0 .2-.1.5-.4.7-.3.3-.4.9-.4 1.9v1.5l-1.6-.1c-1.4-.1-1.8 0-2.7.5-2.8 1.9-2.3 1.8-4.5.3Z"/>
    <path d="M32.7 166.4c-1.3-.5-1.4-.6-1.3-1.4a8 8 0 0 1 1-2.1c.9-1.2 1-1.4.8-3-.2-1.3-.1-1.6.3-1.8.4-.1.8 0 1.3.6.7.7.9.7 3.5.5l3.4-.2c.6-.1.9 0 1.3.7.2.5.7.9.9.9.6 0 1.3 1.1 1.3 2.2 0 .7-.2 1.2-.9 1.8-1 1-1.6 1-3.5.4l-1.3-.5-1.9 1.2c-2 1.3-2.7 1.4-4.9.7Zm33.3 2.1c-2.2-2.8-3.6-4.2-4.3-4.2-.3 0-.7-.2-1-.4-.2-.4-.2-.6.3-1 .4-.6.4-.8.1-1.2-.5-.9-.2-1.1 1.2-1.1a4 4 0 0 1 2.2.6c1.3 1 3.9 1.6 4.5 1 .4-.2.6-.2 1 .3 1.5 1.2 2 2 1.8 2.7 0 .6 0 .8 1 1.4 1.4.7 1.6 1.1.6 1.1-.3 0-.9.3-1.2.6-.6.5-.8.6-1.3.3-1-.6-2-.4-2.5.5-.2.5-.5 1-.7 1-.1.1-.9-.6-1.7-1.6Zm-34.9 14.2c-.7-.9-1.2-1.2-2.1-1.3a6 6 0 0 1-2.7-1.3c-.8-.6-2-1.2-2.6-1.4-1-.3-1.3-.5-1.3-1a7 7 0 0 0-.6-2.3c-.7-2.2-.7-2.3.5-2.9a3 3 0 0 0 1.4-1.3c.5-1 .6-1 2-.8 1.4.1 1.6.3 3 1.8 2.1 2.4 2.3 2.7 2.7 4.5.2 1.4.5 1.9 1.9 3.2a9 9 0 0 1 1.5 1.9c0 .1-.3.5-.8.7-2.2 1.5-1.9 1.4-2.9.2Zm9.7 3.7c-.7-.4-1.1-.9-1.4-1.6-.1-.5-.5-1-.6-1.2a3 3 0 0 1-.9-1c-.3-.4-.9-.8-1.3-1a4 4 0 0 1-1.8-1.2l-.8-1 1-.1c.8 0 1.2-.3 2.2-1.7l1.4-2 1 .6.6.8 1.3-.5 1.6-.6c.3-.1 3.3 3.5 3.3 3.9l-1.6 1.3-1.6 1.2v2c.1 2.2.1 2.2-.6 2.4-.5.2-1.1 0-1.8-.3Zm8-23.1-.1-1.5c0-.9 0-1 1.2-1.1 1.7-.3 2 0 2 1.3s-.1 1.3-1.7 1.7c-1.1.2-1.2.2-1.4-.4Z"/>
    <path d="M47.1 171c0-.1 0-.6.3-1 .3-.9.3-1.1-.7-3.1-.8-1.9-1-2.4-.8-3.5.2-1.6-.5-3.4-1.3-3.4-.3 0-.8-.5-1.1-1l-.6-1 1-1.8c.7-1.4 1-1.7 1.9-2 1.6-.4 2.2-.3 3 .6.6.8 1 1 3.5 1.5 3.6.7 5.6 2 3.6 2.5-.5.1-.8.6-1.3 2.2-.6 1.7-.7 2-.4 3 .2.7.7 1.5 1.2 1.9 1 .7 1 1 .2 2.6-.5 1.1-.6 1.1-2.6 1.5a144.3 144.3 0 0 0-5.9 1Zm3.6-6.7 1.9-.5v-1.6c.2-2.2-.1-2.5-2.6-2.3l-2 .2v2c.1 2.2.2 2.8.6 2.8l2-.6ZM32.6 178a10 10 0 0 1-.6-2c-.3-1.4-.6-2-2-3.6-1-1-1.8-2-1.6-2.2.7-1.3 1.9-2.4 2.3-2.3.3.1.6 0 .8-.3.4-.5.6-.5 2.4-.1l2 .4.2 1.4c.2 1 .5 1.7 1 2.3 1.3 1.4 1.2 3-.2 5-1 1.6-1.1 1.6-2.6 1.7-1 0-1.5 0-1.7-.3Zm21.6 3.2c-1-1-1-1-2.3-.6-1 .3-1.4.3-1.4 0-.3-.6-1-1-2-1-1.1-.1-1.2-.2-2.8-2.2-1.5-1.9-1.6-2-1-2.3.3 0 .8-.8 1.2-1.6.5-1 1-1.5 1.4-1.6a92 92 0 0 1 7.3-1.3c.6 0 3 2.7 4.6 5.2l.8 1.4-2.1 2.3a27.7 27.7 0 0 1-2.5 2.4c-.2.1-.7-.2-1.2-.7Zm-27-23c-.8-.5-.6-3.7.5-7.1 1-2.8 1.1-3.1 2.7-4.7 1.7-1.7 1.8-1.7 2.7-1.4.9.3 1.4.9 2.7 3l1.7 2.8h4.2l1.2 1.4 1.2 1.7c0 .4-1.7 3.5-2.2 4-.2.2-1.5.4-3.2.5l-3 .2-.7-.8-.7-.8-1.4.6c-1.5.7-5 1-5.7.6Z"/>
    <path d="M45.6 192c-2.1-2.2-2.6-2.8-2.8-3.6-.2-.7-.1-.8.6-1 .7-.2.7-.2.6-2.4v-2.4c2.2-1.7 3.1-2.2 4.2-2.2.8 0 1.1.1 1.4.7.4.8.4.8 2.1.4 1.2-.3 1.4-.3 2 .3l.6.6-.8.6-.8.6.2 3.4.2 3.4-3 1.5c-1.5.8-3 1.4-3.1 1.4a6 6 0 0 1-1.4-1.2Zm10.5-35.3c-.5-.5-1.5-.8-3.4-1.2-2.6-.4-2.8-.5-3.6-1.5-.7-1-.8-1-2-.8l-1.7.3c-.2 0-1-.6-1.7-1.6l-1.4-1.7h-2a9 9 0 0 1-2.2-.2 28 28 0 0 1-3-4.9c0-.2.4-.5.9-.7 1-.4 1.3-.8 1.6-2.7.3-2.4 1-3 1.9-1.8.3.5 1 .8 3.3 1.2l3.8 1c.8.4 1 .4 2.8-.4l2-.8 1.6 1.8c1.5 1.5 1.8 1.7 2.3 1.5.8-.5 1.3-.4 2.8.5 1 .7 1.7.9 2.7.9 1.2 0 1.4 0 1.5.7.3 1-.2 2-1.7 3.6-1.7 1.6-2.8 4-2.1 5 .3.4.2.6-.5 1.5l-.9 1-1-.7Zm-16.3 18.5c-.3-.5-.6-.8-.7-.8-.2 0-.2-.5-.2-1 0-.8-.3-1.3-1-2-.7-1-.9-1.3-.9-2.7V167l1.3-.9 1.3-.8 1.7.5c1.7.5 1.7.5 2.8-.1l1-.6.9 1.8c.9 2 .9 2 .3 3.5-1.7 4.1-1.6 4-4.4 5l-1.6.6-.5-1Zm18-2.6c-2.2-2.7-2-2.4-1.2-4.3l.7-1.7-1-1c-1.5-1.3-1.7-2-1.1-4.1l.7-1.8 1 1c.7 1 .9 1 2 .9 1.5-.2 2 .1 1.1 1-.5.5-.5.6 0 1.3.2.5.8 1 1.3 1.1 1.3.4 5.7 5.3 5.2 5.8-.3.3-7 3.3-7.3 3.2-.1 0-.8-.6-1.4-1.4ZM32 198.2l-1.7-.8a11 11 0 0 1-1.8-2.7s.7-1 1.7-2c1.9-2.1 2.3-3.4 2.3-6.5v-1.7l1.6-1c1.8-1.3 2.9-1.3 3.3 0 .2.3.4.6.6.6.2 0 .5.6.9 1.3.4 1 .8 1.4 1.5 1.7 1 .4 2 1.4 2 2.2 0 .2.8 1.4 2 2.6 1.8 2 2 2.3 2 3.4 0 1.5-.5 1.6-2 .4-1-.7-1.1-.7-3.1-.6l-2.4.3-.3 1.2c-.2.8-.4 1-1.9 1.6-2.5 1-3.3 1-4.8 0Z"/>
    <path d="M57.5 160.3c-.6-.7-.4-1.5.8-3 1.3-1.7 1.4-1.8 1-2.6-.5-1 .2-2.7 2-4.4 1.9-2 2.5-2 4-.3l1.2 1.2.8-.6c.7-.5.8-.5 1.2 0 .3.5 1 4.1 1 5.8 0 .7-.2 1-.7 1l-2.2 1.6c-1.2 1-1.7 1.3-2.2 1-1-.3-4.5 0-5 .4-.5.6-1.3.5-1.9-.1ZM6 227l-.6-1 .6-.2a3 3 0 0 0 1.1-.3c.4-.2.4-.3.1-.8-.6-1-.4-1.3.8-1.9 1-.5 1.9-1.6 1.6-2.2l-1.2-.2c-1 0-2.3-1.1-2.6-2.3-.3-1 0-1 1-.2a3 3 0 0 0 2 .7c1.1 0 1.3.1 1.7 1 .5 1.4.8 4.6.4 5.2-.3.5-.3.5-.6-.4-.2-.5-.5-.9-.7-.9-.2 0-.9 1-1.6 2.2a9 9 0 0 1-1.5 2.1L6 227Zm38 11.9-4-.3h-1c-.3-.3-.2-.5.8-1.6l1.3-1.2-.5-1.1c-.7-1.3-.8-1.2 1.8-1.7l1.8-.5c0-.1 0-.9-.2-1.6-.2-1.4-.2-1.5.8-3l1-1.6c0-.1-.7-.2-1.5-.2h-1.5l.2-2.3c.1-1.5 0-2.7-.2-3.6-.1-.7-.2-1.4-.1-1.5.1 0 1.2-.2 2.5-.2 1.9 0 2.2.2 2.7.7.6.8.6 1.3 0 2-.4.4-.5 1.3-.1 2.2.1.3 0 1.1-.3 2-.6 2-.5 2.2 1.3 3.6.7.5 1.4 1.1 1.4 1.4.1.3.3 1.6.3 3l.2 2.7-1.2.4c-1.2.5-1.2.5-1 1.7.2 1.3.6 1.3-4.6.7Zm-23 11.3c-.3-.6-.5-1.1-.4-1.3.1-.2 1.6-1.2 3.4-2.3 3.1-2 3.2-2 3.7-1.5.3.3.8.6 1 .6 1 0 .8 1-.4 1.6-.7.4-1 .8-1.4 1.8l-.5 1.4-2 .2c-1.2 0-2.3.2-2.6.3-.3 0-.6-.2-.9-.8Z"/>
    <path d="m24 263.1-.1-2.6c0-2-.1-2.1-1.5-4.2-1.3-2-1.4-2.4-1.3-3.3.3-1.3 1-1.6 3.6-1.6 2.2 0 2.2 0 3-1.9.2-.6.6-1.2 1-1.4 1.2-.6 1.5-1 1.4-2.1 0-1-.2-1-.8-1.1-.8-.2-1.2-.6-2.5-2.7l-.6-1 2.4-1.4 2.5-1.4 1.6 1.5c1.7 1.7 1.8 2 1 2.2-1.4.5-1.5.9-1.3 4.1.2 3.5.3 3.3-2 6.2l-1 1.5-.1 4.6-.1 4.6-1.4.3-2.5.4c-.9 0-1.1-.1-1.3-.7Z"/>
    <path d="M19.6 247.8c0-.3.1-.7.5-1.1.6-.6.6-1 .5-2.3l-.2-1.6h2.1c2.6 0 3.9.2 4 .7.2.3-1 1.2-6 4.4-.6.4-.7.4-.9 0Zm-6.2-7.4c-.3-1-.8-2-1.1-2.4l-.6-.6 1.4-.8 1.5-.7 1.5.9 3.5 1.8 2 1-.7 1c-.5 1-.5 1-2.2.8-1.2 0-2.1 0-3.1.3l-1.6.5s-.4-.8-.6-1.8Zm20.2-.6a6.2 6.2 0 0 1-2.3-3.3l-1.5-4c-.6-1.2-1.1-2.7-1.2-3.3a16 16 0 0 0-2.8-5.4c-.3-.4-.9-.6-1.5-.6-.8 0-1 0-1-.6-.1-.5-.3-.7-1-.6-.6 0-1.1 0-1.3-.3-.3-.3 0-.4 1.2-.6.8-.1 1.7-.4 2-.7.4-.4.6-.3 1.2.8.5.7 1 1.6 1.2 2.2.6 1.7.9 2 2.5 2 1.6.2 1.6.2 2-.7.3-1 .4-1 1.7-.7l1.4.1 1-1.7 1-2c-.2-.2-.8-.3-1.4-.3-1 0-1.2-.1-1-.5 0-.4.4-.6 2.2-.6 1.7-.1 2.3-.2 2.7-.7.7-.6 1-.5 1 .5 0 .9.6 1.3 1.3 1 1-.6 1.2 0 1.2 3.5v3.2l1 .1c.7 0 1.1.2 1.1.4l-.7 1.3c-.4.7-.6 1.3-.5 1.8.3 1.9.4 1.9-1.6 2.3l-2.2.6c-.1.2 0 .7.3 1.4l.5 1.2-1.4 1.4c-1.3 1.3-1.3 1.3-.7 1.8.8.7.7.9-.3 1.6-1.8 1.2-2.3 1-4.1-.6Zm-23.1-3.4a32 32 0 0 1-3.9-6.1l1.5-.7 1.4-.6 1 1 .9 1 1-.4c1.2-.6 1.4-.6 2 .3.5.8.5.8 0 1.1-.5.3-.5.4 0 1.6l.5 1.4-1 .3-1.7 1c-1 .7-1 .7-1.7.1Z"/>
    <path d="M10.7 229.1c-.4-.5-.9-1-1.1-1l-2 .8c-.9.5-1.7.7-1.8.6l-1.3-.5c-1.2-.4-1.4-1-1.4-5 0-2-.2-2.9-1-5-1-3.3-1.6-5-1.8-6.7-.2-1.3-.1-1.4.4-1.4.3 0 .8.3 1 .8.7 1.1 1.1 1.1 2.7 0 1.2-.9 1.4-1 3.1-.7 2.2.2 2.4 0 2.6-2 0-1.6 0-1.5 2.4-1.1.9.1 1 .2.8.9-.2 1 .5 1.8 1.4 1.5.6-.2.8-.1 1.3.4 1.3 1.5 1.3 1.5.8 3l-.5 1.5 1 1.6c.9 1.2 1.1 1.8 1 2.6 0 1-.1 1.1-1.3 1.1-1 0-1.3.1-2 1-.8 1.3-.8 1.6-.2 3.2.5 1 .4 1.1-.1 1.6-.4.3-.8 1-1 1.7-.3.7-.8 1.3-1.3 1.6l-.9.6-.8-1Zm-2.4-2.4 1.2-1.9.4 1c.5 1.2 1 1.1 1.7-.4.3-1 .4-1.6.2-3.3-.5-3.6-1-4.3-3.2-4.3-.4 0-1-.4-1.5-.8-.7-.7-1-.7-1.6-.4-1 .4-.9 1.6.2 3 .6.8 1.2 1.2 1.8 1.3 1.4.2 1.2.8-.4 1.4-1.5.6-1.6.8-1 2.1.2.4 0 .5-.7.6-.5.2-.9.4-.9.7 0 .8 1.5 3 2 3 .4 0 1-.7 1.8-2ZM17 246c-2-.5-2.3-.8-2.8-2.5-.1-.6 0-.7 1.3-1 .9-.2 2.2-.3 2.9-.3l1.3.2v1.6c.1 1.6-.2 2.6-.7 2.5l-2-.5Z"/>
    <path d="M22 242c-.9-.1-.9-.3-.2-1.4.8-1.2.8-1.4-.5-2a83 83 0 0 1-3.4-1.8c-2.2-1.2-2.3-1.4-2.6-2.6-.2-1-.2-1.2.2-1.2 1 0 .9-.5-.1-2a6 6 0 0 1-1-2.1c0-.7.5-1.7 1.1-2.2.6-.5.6-.5.1-2.1-.5-1.5-.5-1.7 0-2.4.3-.5.7-.7 1.3-.7.4 0 1 0 1.4-.2.7-.4.8-.3 2 .8.8.8 1.3 1 1.7 1 .3-.2.5 0 .6.4.1.5.4.6 1.4.6 1.1 0 1.2 0 2.3 1.8a11 11 0 0 1 1.5 3.5c.2 1 .8 2.7 1.3 3.8 1.4 2.7 1.8 4.2 1.3 4.6l-2.4 1.4c-2.6 1.4-2.8 1.5-2.6 2.3.2.5 0 .6-1.3.6l-2.2-.1Zm7-17.3c-1.2-.1-1.7-.5-1.7-1.2 0-.8-2-4.3-2.5-4.5-.2 0-.7.2-1 .6-.5.7-.7.8-2.5.7h-2V219c-.1-.7-.7-1.8-1.2-2.6l-1-1.4.6-1.5.5-1.5-1-1.3c-1.2-1.4-1.4-1.5-2.5-1.4-.5 0-.7 0-.6-.5 0-.4.4-.5 1.4-.5.8 0 1.6-.1 1.8-.4.4-.4 0-.8-2-2.2-.8-.6-.8-.7-.3-1.2.4-.5 1-.6 1.8-.6 1.2 0 1.5.1 3 1.6l1.8 1.6 1-1 1.8-2.4c.8-1 1.3-1.5 2.2-1.7 1.8-.5 2.4-1 2.7-2.1.6-1.6.8-1.7 2.4-.7 1.3.8 1.7 1 2.5.8 2.2-.4 2.2-.5 2.6 1.5.5 2 .5 2-1.5 3.4-.6.4-.6.4 0 1.6.7 1.3.7 1.3.2 2.3-.5 1-.6 1.1-1.9 1.1-1.4 0-3.1.6-3.1 1.2 0 .1.2.7.5 1.1.3.8.4 1.2.1 2.2-.4 1.6 0 3.4 1.1 4.1.6.5.8.8.7 1.4-.2 1-.1 1 1 1h1.2l-.6 1.1c-.7 1.2-.7 1.2-2 1-1.3-.1-1.5 0-1.9.7-.5 1-.6 1-1.7 1Z"/>
    <path d="M48.8 219.1c-.4-1-1-1.2-3.7-1.4-1-.1-3.8.4-4.1.7-.4.3-.5.2-.8-1.3-.2-1-.6-1-1.7.2-.8 1-1 1-2.8 1-2.6 0-3.3-.3-3.8-1.6-.2-.8-.2-1.3 0-2.2.3-1 .3-1.4-.1-2.2-.7-1.3-.3-1.5 2.4-1.6 1.2 0 1.3 0 2-1.4l.8-1.4-.7-1-.6-1.1 1.2-1 1.2-1-.4-1.7-.5-2.3c0-.4.2-.7 1-1.1 1-.6 1.3-1 1.6-2 .2-.4.5-.5 2-.5.9 0 1.7.2 1.8.3l1.1.9a6 6 0 0 1 1.6 1.9c.8 1.3.9 1.4 2.9 2a7 7 0 0 1 2.4 1c.3.5.3 2.4 0 3.6-.4 1.1 0 1.7 1.3 2 .7 0 1.2.4 1.6 1.1a4 4 0 0 0 1.5 1.4c.6.3 1 .7 1.2 1.5.2.6.3 1.2.2 1.3l-2.5 1.5c-2.8 1.5-3 1.7-3.1 3 0 .8-.3 1-1.3 1.7l-1.2.7-.5-1Zm53.5-62-1.5-.3a2 2 0 0 1-1.4-.7c-.5-.7-.7-.8-1.7-.6l-1.1.2v-1.1c0-1-.1-1.2-.6-1.3-.3-.1-.8-.7-1.1-1.3-.6-1.2-1.2-1.5-2-1-.3.2-.8.2-1.2 0-.6 0-.8-.3-.9-1.3-.1-.9-.3-1-.7-1l-1.9.2c-1.2.2-1.4.2-2-.8a8.7 8.7 0 0 0-3-2c-1.7-.8-2.2-1.2-2.4-1.8-.1-.4-.4-.8-.9-.9a16 16 0 0 1-4.4-4.6l.7-2.1.7-2.2c0-.2.6-.7 1.2-1 1-.5 1.2-.7 1.4-2a6 6 0 0 1 1-2.3c.7-.9.7-1 .3-2.2-.7-2.4-.5-3.1 1-5.2.6-.8 1-1 2-1s1.2.2 1.3.6c.1.5 1.8 1.8 2.3 1.8.3 0 2.2-1.8 2.6-2.4.1-.3.1-1-.1-1.7-.4-1.6 0-3.6.7-4 .7-.6 1 0 1.3 2.6l.3 2.3 1.8 2c2.5 2.5 3 2.6 3.7.4 1.4-4 2-4.4 6.2-4.4 3.7 0 3.8 0 4.8 2.4 1.2 2.8 1.5 3 2.6 2.4l.8-.5 2 3.9 2.1 3.8 1.8-.1c1.3-.1 2 0 2.3.2.5.4.5.5-.6 2.7l-1.1 2.3.6 2c.6 1.8.6 2.2.3 2.7-.3.4-.5.4-1.7.1-.7-.2-1.8-.3-2.5-.3-1 0-1.4-.2-2.6-1.4-.8-.8-2.2-1.8-3.3-2.4-1.7-.9-1.9-1-3-.6-.7.2-1.2.5-1.2.7 0 .2.4 1.3.9 2.3.7 1.6.8 2 .6 2.7a5 5 0 0 0-.2 2.1c.2 1.5.3 1.4-1.6 1.8-.6.2-.8.5-1.4 2.4l-.7 2.2.9.7c1.1 1 1.6.8 2.6-.5.8-1 1.1-1.1 2-1.1 1 0 1.3.1 1.6.6.5.7.4.8-2 3.1-2 2-2.4 2.6-2.3 3.2.3 1.6-1.1 2.4-3.3 1.7Z"/>
    <path d="M148 137.9a58.8 58.8 0 0 1-10.9-5.8c-3.4-2.2-4.6-3-5.1-2.8a202 202 0 0 1-15.5-.3 48.4 48.4 0 0 1-3.5-7.3l1.4-.9 1-.6-.2-2-.2-2 1.2-.5c1.7-.7 4.3-3.5 4.3-4.6 0-.5.1-1 .3-1 .4-.3 1.8 1 2.3 2.3.7 1.7.7 2.8 0 3.4-.5.5-.6.5-2 0s-1.4-.5-2.7.1c-.8.4-1.4.9-1.5 1.1-.2.5.4 5 .7 5.5a10 10 0 0 0 3.8 1.5c.2 0 1.1-.7 2-1.5l1.6-1.6h8.1c4.6 0 8.2 0 8.3.2.1.2-.5.7-1.4 1.2-.9.5-1.7 1-1.8 1.3-.2.5 1.7 2.6 2.7 3 .3.1 1.1 0 2-.3 2-.7 2.6-.7 4.5 0 1.1.5 1.8.6 3.6.4l2.2-.2-.2 1.4c-.2 1.2-.2 1.3.6 1.6a4 4 0 0 0 4.1-.5l1.3-.8-.2-2c-.1-1.4 0-2 .3-2.3.5-.5.4-.5 4.9 2 .7.5 1.6 1.3 2.1 2.2l1 1.4-.6.9c-.8 1-.8.9.1 3 .4 1 .7 2 .5 2 0 .2-.6 0-1-.1-1-.4-1-.3-2 .8a5 5 0 0 1-2.3 1.5 6 6 0 0 0-2.4 1.2 8 8 0 0 1-3 1.5l-1.9.4-6.5-2.8Zm4.2-25.9a9 9 0 0 1-2.3-2.4l-.8-3.9c-.5-2.7-.5-3.3-.2-4.3.3-.9.6-1.2 1.5-1.5a16 16 0 0 0 3.8-3c2.4-2.2 2.9-2.5 3.6-2.3.7.1.9 0 2.1-1.6.7-1 2-2.1 2.7-2.7.7-.5 2.6-1.8 4-3l3.6-2.5a55 55 0 0 1 12.2-2c2.3 0 5-.5 6.1-.8 1.2-.3 2.3-.5 2.5-.4.8.3.6 1.8-.5 2.8-1.1 1.1-1.1 1.1-7.5 1.8-4.7.5-6 1-10 3.6a25 25 0 0 1-3.3 1.7c-.9.4-2.5 1.4-3.6 2.3L162 97c-2.4 1.8-5.4 5-6.7 7.1-.7 1.2-.7 1.4-.5 4.8l.2 4c.2 1-.5.8-2.7-1Zm38.6-59.7c-.6-1.4.4-2.5 1.7-2 .8.5.9.7.1 1.7-.7.8-1.6 1-1.8.3Zm4.8 0c-.8-.4-1-.5-.7-1 .4-.7 3.2-1.4 3.5-.8.5.8.3 1.4-.7 1.8l-1 .4-1.1-.4Zm-8.5-.6c0-1.2 2-1.3 2 0 0 .2-1.2.8-1.7.8-.1 0-.3-.4-.3-.8Zm-.2-3.5c-.6-2-.4-2.1 2-1.3 1.4.4 1.4.5 1.4 1.3-.1 1-.2 1-1.6 1l-1.5.1-.3-1Zm-11.1-.9c-.5-.6-.5-.6.5-1 3.4-1.4 5.2-2 5.4-1.7.2.3 0 2.4-.2 2.4l-2.3.4c-2.8.6-2.8.6-3.4-.1Zm13.2-1.9-.8-.3 1.5-.5c1.4-.4 1.7-.4 2 0 .4.3.4.4 0 .8-.4.5-1.5.5-2.7 0Zm-11.5-1.6-1.2-.2c-1.2 0-1.2-.6-.1-1.4l.8-.6 1.6.6c1 .3 1.6.7 1.6.9 0 .2-1.7 1-2.2 1a.5.5 0 0 1-.5-.3ZM5.8 122.7a202 202 0 0 1-2.9-4c-2.1-3-2.1-3.3 0-3.3.8 0 1.1.2 1.6 1l1.2 1.5c.6.5.6.5 1.4-.1.5-.4 1-.6 1-.4.3.5 1.6 4.7 1.6 5.3 0 .6-.1.6-1.7.9-1.3.2-1.4.1-2.2-1Zm53 15.9-.3-.5-1.2-2.9-1.2-2.5H55c-1 0-1.2-.1-1-.6.1-.4 0-1-.4-1.6-.7-1-1.1-1.2-2.6-.7-1.1.3-3.1-.2-4-1-.6-.7-.7-.7-1.5-.3l-1 .4-.3-1.6c0-1-.4-2.6-.8-3.6-.7-2.3-.7-2.4 1.4-2.7 1-.1 1.6 0 2.7.4 1.5.7 1.8 1.1 2.2 3.6.2 1 .2 1 1.7 1.2h2.5c.9 0 1-.2 1.7-1.6.5-.9.7-1.7.7-1.8l-2-1.2c-1.4-.8-2-1.3-2.1-2-.5-1.3-.4-1.5.6-2.6.9-1 1.2-1 2.3-1 1.2.1 1.2.2 2 1.8l2.7 5.6 1.7 4 1.7.2c1.5.2 1.7.2 2.4-.5l.7-.6.7.8 1.6 2 .8 1.3-1 .3c-.6.2-2 1.2-3.1 2.2-1.7 1.5-2.2 2-2.3 2.8 0 .7-.3 1-1.8 2-2 1.2-2 1.2-2.4.7Z"/>
    <path d="M75.8 132.3c-.8-1-1.1-1-3-1.2l-2.1-.2-2-2.7a14.3 14.3 0 0 0-2.3-2.7c-.2 0-.7.3-1 .7-.7.7-1.5.9-2.8.5a58.8 58.8 0 0 1-5-10.4c0-.2.6-.3 2-.3a45 45 0 0 0 10.3-1.8c.2-.2.6-1.7.8-3.4l.7-3.2c.2-.2.8-.4 1.5-.6 1.3-.4 1.4-.5 2.9-3.2 1.4-2.6 1.7-3 3.3-3.8a11 11 0 0 0 4.3-4l1.3-1.6 1.8 1c1.4 1 1.4 1.2 1.3 2-.5 1.8 0 2.8 1.2 2.8.7 0 .8.1 1.3 3.5l.3 2.6-.8.6c-1.7 1.2-3 2.5-4.6 4.7l-1.7 2.1.5 2.7.7 3c.1.5 0 .6-1.2.6s-1.4 0-2.5 1.5-1.2 1.7-1.1 3.4c0 1 0 2.2.2 2.6.2.5 0 1-.4 1.5-.4.4-.8 1.3-.8 2-.2 1.1-.4 1.5-1 1.8l-1 .4s-.6-.4-1-1Zm53.8 36.7c-3-1.2-4.3-1.3-7.7-.7-2 .4-2.4.4-4.2-.2-1.9-.5-2-.6-2.7-2l-.7-1.4-2.2-.2c-3-.2-3.1-.2-3.1 1.5 0 2-.6 2.3-4.4 1.3-3.1-.7-3.4-.7-4.5.6l-1 .7c-.4 0-1.4-2.8-1.4-3.9 0-.3.5-1 1-1.6.8-.8 1.1-1.6 1.5-3.3l.5-2.2 1 .2c3.2.6 3.4.6 4.2-.5.5-.6.7-1.2.6-1.6-.1-.6.3-1.2 2.3-3.2a23 23 0 0 0 2.5-2.7l-.8-1.2c-.7-.9-1-1-2.2-1-1.2 0-1.4.1-2.3 1.2-.9 1-1 1.1-1.6.9-.7-.4-.7-.6 0-2.5.4-1.4.5-1.5 1.7-1.8l1.3-.3-.1-1.7c0-1 0-2 .2-2.5.3-.7.2-1.1-.5-2.7-.7-1.5-.9-2-.6-2.1.7-.4 1.4-.3 3 .6 2.3 1.4 3 2 3.4 2.7.2.6.4.7 1.5.7a27 27 0 0 1 5 1.2l.8-1 .6-1-.6-2.1-.7-2 .7-1.5c.4-.8 1-2 1.5-2.5l.6-1h10.6l4.5 3c3.1 2 5.6 3.3 8.3 4.5l5 2.1c4.3 1.9 3.8 1.8 6 1.2 1.3-.3 2.4-.8 3.2-1.5.7-.7 1.5-1 2.3-1.2.8 0 1.3-.4 2-1.2 1.3-1.5 2.8-1.2 1.6.3-.6.8-.5 1.5.3 2.2l.7.7-.8 1.1c-.4.7-1.4 1.8-2.1 2.4-1.2 1-1.6 1.2-4 1.7-2.8.4-4.2 1-5.4 2.4-.3.3-1.4.8-2.5 1.2-1 .3-2.7 1-3.7 1.7-1.6 1.1-1.8 1.2-2 .8-.5-.9-1-.7-2.9 1.3-1.5 1.6-1.8 2-1.9 3a7 7 0 0 1-.2 1.3l-1.8 1.4c-1.7 1.3-1.8 1.5-3.1 4.7-2.1 5.1-2.9 6.6-3.5 6.6-.3 0-1.8-.4-3.2-1Z"/>
    <path d="M101.6 113c-1.9-.8-2.4-1.3-4-3.5a23 23 0 0 1-3.5-9.7c-.5-2.9-.6-3.3-1.2-3.3-.4 0-1 .3-1.8 1.3s-1.4 1.5-2 1.5c-.8 0-1-.5-.5-1.8.4-1 .4-1-.3-1.7l-2-1.4c-1-.8-1.2-1-.6-2.1.3-.8.4-.9 3-1.4 2.2-.4 2.8-.8 3-2.1.8-4.2 1.1-5.3 2-5.6a11 11 0 0 1 7.2-1.1c5.1.4 5.2.4 5.2 1.2 0 .7-.2.8-.9.8-.5 0-1 .1-1 .4-.3.7.7 3.6 2.2 6.5a12 12 0 0 1 1.9 6.3c.2 2 .7 4.3 1 5.3.7 2 .7 3.4 0 7.2l-.5 2.9-1.7.4c-2.3.7-3.7.6-5.5-.1ZM58 143.4c-.8-.5-1.4-.7-2.1-.6-1 .2-1.2 0-2.7-1.5l-1.6-1.6-1.3.5-2 .8c-.8.3-1.2.3-2 0-.5-.3-2-.7-3.1-.9-1.7-.3-2.4-.5-3.1-1.2l-1-.9 2-2.1 1.9-2.1-.4-1.1a8 8 0 0 1-.3-1.9c0-.6.2-.7 1.1-.8.6 0 1.5-.3 2-.5.8-.3 1-.3 1.5.2.8.7 2.8 1 4.4.8 1.4-.3 2 .3 2 2 0 1 0 1 1.1 1h1.2l1.2 2.5c1.5 3.3 1.6 3.7 1 4.6-.5.7-.5.8 0 1.2l1.1.8c.3.2.5.5.4.9l-.1.6-1.1-.7Z"/>
    <path d="M32.9 143a44.2 44.2 0 0 1-3.4-8.8c.3-.8 3.9-6.8 4.4-7.4.2-.2.8-.5 1.3-.5 1.2 0 2-.5 3-2.2 1-1.4 2-2 3.3-2 .7 0 1.6 2.5 1.9 5l.2 2.1h-.8c-1 0-1.4.7-1.3 2l.4 1.9c.1.4-.2 1-1.2 2-3.5 3.8-3.8 4.3-4.1 6a58 58 0 0 0-.3 1.8c0 .3-2 1.3-2.4 1.3-.2 0-.7-.5-1-1.1Zm17.7-17.8c-.2-.3-.5-2.3-.4-2.3l1.2.4c1.4.6 2 .4 1.8-.6l.1-.7 2 1c0 .1-.1.7-.4 1.3l-.5 1.2h-1.9c-1 0-1.8-.1-1.9-.3Zm35.9 36.1c-1.8-.6-2-.7-3.4-2.8-1.2-1.7-1.8-2.3-3.2-3-1.6-.8-1.7-.8-4.4-.6a9 9 0 0 0-3.7.8c-.5.3-1 .5-1.1.4l-.5-3a8 8 0 0 0-1-3.4c-.8-.7-1.2-.8-2-.3-.6.3-.8.3-1.6-.8a5.2 5.2 0 0 0-1.5-1.3c-.6-.2-.7-.5-.7-1.2 0-1.3-.4-1.7-2-1.7-1.2 0-1.2 0-1.2-.9 0-.7-.2-1.1-1-1.7-.8-.7-.9-.8-.3-1.4l2.3-1.6c2.4-1.5 2.8-1.8 2.8-2.7 0-.6.4-1.2 1.8-2.4 1-.9 2.1-1.7 2.5-1.9a12 12 0 0 1 3.5 0c2.6.2 2.7.2 3.6 1.2l1 1-.9 2.4-.9 2.7c0 .5 4.4 5 4.9 5 .2 0 .5.4.6.8.2.4 1 1 2.5 1.8a10 10 0 0 1 3.2 2.3l1 1.1 1.4-.3c1.6-.3 2 0 2 1.2 0 .8 1 1 2.6.8 1-.2 1.1-.1 1.5.7.2.5.7 1 1 1.4.7.4.9 1.2.5 2.2 0 .2-1 .7-1.9 1.2-1.7.8-2 1.3-1.2 2 .4.2.5.5.2 1.1-.2.8-.3.8-1.5.8-.7 0-1.4 0-1.8.3-.8.6-.8.6-3.1-.2Zm291.3 64.5-6.4-5.9c-6.5-6-6.3-5.8-8.2-6-1.5-.2-2-.1-2.6.3-.6.4-1.1.4-3.4.3-2.9-.2-3.6 0-6.4 1.9-1.5 1-2 1-3.8-.6l-1.3-1.2.5-.8c.7-1.2.7-1.6-.3-2.3-.6-.4-1-1-1.3-2.4-1-3.3-1.1-3.7-1.6-3.7-.3 0-.8.3-1.2.7-.4.4-.7.7-.9.7l-1-1.2c-.5-.8-1.1-1.3-1.3-1.3-.2 0-.7.3-1.2.7-1 1-1.7.6-1.5-.9.2-.8.1-1-1.3-1.7-.8-.4-1.5-1-1.5-1.1 0-.2.7-.8 1.5-1.4 1.4-.9 1.5-.9 2.7-.6 1.8.4 5.5.2 7.7-.6l2-.6 1.4 1c1.7 1 2 1 4.3.1 1.3-.6 2-.7 3-.6 1.3.1 1.5 0 3.7-1.4 1.5-1 3.3-2 4.4-2.3 1.3-.4 2.2-.8 2.4-1.1 1-2.1 1.7-2.8 2.6-3 .6 0 2-1 3.5-2 3.2-2.6 3.7-2.8 4.6-2.5 1.2.4 1.2 1.8.2 4.5-.8 2-1.8 6.6-1.8 8.4 0 .9.1.9 2.5.2l2.2-.6c.2 0 .7.5 1 1.1.4.7.8 1.2 1 1.2l3-2c2.5-2 2.7-2.1 2.7-3 0-1 0-1 .7-1 .5 0 1.1-.5 2-1.5l1.3-1.5.9 2 1.3 2.9.4.9-2.3.9c-1.3.5-2.3 1-2.3 1.2 0 .2.4.8.9 1.3l.9.9-.7.6c-.5.4-.8 1.1-1 1.8 0 .7-.6 2-1 3-.8 1.7-.9 2-.8 4.9.1 2.8.2 3.2 1 4.3.7 1.2.8 1.3 2.2 1.3 1.5 0 1.6 0 3 1.5.9.8 1.6 1.7 1.6 1.9l-.6 2.6c-.5 1.7-.8 2.3-1.2 2.4-.3.2-1.8 0-3.3-.1-2.4-.3-2.7-.3-4 .2a39 39 0 0 1-5.7 1.8c-.2 0-1.6-1.2-3.2-2.6Zm22.2 5.5a13 13 0 0 1-2-2c-2.7-3.2-2.6-2.9-2.1-4.7l.5-1.8c.4-.3 6-3.3 6.3-3.3l1.3.5c1 .4 1.1.4 3.6-.2a9 9 0 0 1 2.8-.5l-1.7 2.8-2.5 4.2c-1 2-3.9 4.9-5 5.1h-1.1Zm34-109.9-.6-2.5c-.6-2.6-.5-2.8-1.7-4l-1.4-1.1.5-2.1c.6-2.5.9-1.6-3-12.7l-3-8.2-.2-3.7c-.2-4.2-.4-4.5-3-6.5l-2.7-1.9-.6-.5.7-1.4c1-2 .8-2.5-1-2.5h-1.4l-1.4 2.4c-1 1.8-1.3 2.7-1.1 3.1a9 9 0 0 0 2 2.2c1.2 1 1.9 1.7 1.9 2 0 .4-.1.6-.2.6l-2.3-2c-2.2-2-3.3-2.7-4.4-2.2-.8.4-1 .2-1.8-1.9-.6-1.5-.7-1.6-1.5-1.6-1.2 0-1.4-.2-2.5-2.1-.8-1.5-1-1.7-2-1.9-1-.1-1.2-.2-1.2-1 0-.9 1-2.1 3.3-4.3 1-1 2.2-2.4 2.6-3.2.7-1.2 1-1.5 1.8-1.6.8 0 1.1-.2 1.5-.9.4-.7.8-.9 2.4-1.2 2.9-.7 2.9-.7 4.1 1.5a7.8 7.8 0 0 0 1.5 2.2c.2.1 1-.3 1.8-1 1.3-1 1.5-1.2 3.5-1.2l2.1-.1.5-1.9c.3-1 .6-2.2.6-2.7s.3-1.7.7-2.7c.4-1 .7-2.3.7-2.8v-1h1.7l2 .2c.1.1 1.2 3.3 2.2 7a45 45 0 0 0 3.7 9.8l-2.6 1c-1.4.3-2.7.9-2.8 1a11 11 0 0 0-.6 3.6c-.3 2.7-.3 3.4 0 4.3.7 1.5.6 1.7-.9.9-2.5-1.4-2.8-1-1.4 2.4l1 2.6c0 .2-.5 1-1.1 1.7l-1.2 1.7c0 .7 7 11.4 7.7 11.8a5 5 0 0 0 2 0l.5-.8.2-1.3c.6-.7 1-.5 1.5-.6.6-.2 1 .5 1.4 1.3.2.4 1 .8 1.6 1.6 1.8 1.2 4.2.7 6 1.6-.7 2.6-.5 5.5-.7 4.2-.5-2.5.7 1.4 1.7 3.3l4.7 1.5.3 1.9c-2.3 1.9-1.4 7.2-1.6 7-1.1-1.9-.1 0 4.4 2.9 1.2.8-.3 5.8 1.1 7.7a13 13 0 0 1 3.8 4.8l1.4 6.2-25.3-12.4c-1.4-1.3-2.9-3.2-3-3.2l-3-3.3Z"/>
    <path d="M415.3 228.1c-.4-.8-.5-1.6-.3-2.6.1-1.3 0-1.5-1.3-3.7a33 33 0 0 1-2.3-3.7l-3 .8c-3.1 1-3.1 1-4.6.3l-1.1-.6-2.9 1.6-3 1.6s-.2-.2-.2-.5a8 8 0 0 0-1.9-2.3c-1.7-1.7-2-1.8-3.2-1.8-1.3 0-1.5 0-2-1a8 8 0 0 1-.7-3.7c-.1-2.5-.1-2.7.8-4.7.5-1.2 1-2.4 1-2.9 0-.3.4-1 .9-1.6.7-.9.8-1.1.5-1.6-.1-.3-.5-.7-.8-.9-.7-.4-.3-.7 1.8-1.5 1-.4 1.9-1 2-1.1.2-.5-2.8-7.2-3.2-7.2-.2 0-.9.7-1.6 1.6-1.2 1.3-1.6 1.6-2.5 1.7-1 0-1 0-1 1.2.2 1.2.1 1.2-2 2.8a8.6 8.6 0 0 1-2.5 1.6c-.1 0-.5-.4-.8-1-.7-1.2-1-1.2-3.9-.3-1.2.4-1.4.4-1.4 0 0-1.4 1-5.7 1.8-8 .8-2 .9-2.7.7-3.5-.3-1-.5-1.2-1.5-1.5l-1.2-.5-2.2 1.6a17 17 0 0 1-2.4 1.5c-.4 0-1.2-2.9-1.2-4 0-.4.1-1 .3-1.2.5-1.1 0-2-2-3.1l-1.8-1 .2-1.2c.3-2 .3-2-.8-2.7-1-.7-1-.8-.7-1.2.3-.3.4-1.2.3-4.4l-.2-4.1 2.9-1.5 2.8-1.4v-1.7l-.1-1.8 1.8-.5 1.8-.6.1-2.1.1-2.2 1-.1c2-.2 2-.2-1.5-4.7-1.8-2.4-2.2-3-2.5-4.5-.4-2-.4-1.9.6-3 1-1.2 1-1.5-.3-3.7l-1.2-2.4c-.3-.9-.3-1 .1-1.5.4-.4 1-.5 2.3-.4 1 0 2.4-.1 3.1-.3 1.1-.4 1.4-.6 2-1.8l.8-1.3h3.3l-.2-1.5-.1-1.5 1.4-1.1c1.4-1 1.5-1.1 2.8-.8 2 .5 3.5 1.3 4.4 2.7l.9 1.2-.8 1.2-.9 1.1.7 1c.8 1.3 1.4 1.4 2.5.6.6-.5 1.1-.6 4.2-.6 2.9 0 3.6 0 3.6.4 0 .2-.7.6-1.5.9-2 .6-2.3.9-2.2 2 0 .7 0 .9-1.2 1.3-.7.2-1.4.7-1.6 1l-3 3.7-3 3.7c-.2.4-.2.7.4 2 .7 1.8.7 2.2-.5 5.1l-.5 1.4 1 1.7 1.1 1.7-.8 3.6-1 3.6.5 4 .5 4-1.3 6.3c-.8 3.4-1.3 6.3-1.2 6.5 0 .1.7.3 1.4.3 1 0 1.6-.3 3.1-1.3 1.1-.7 2-1.3 2.2-1.3.2 0 .9.6 1.6 1.4 1.4 1.7 2.3 2 2.3.6l-.2-.8c-.2-.5 0-.7.4-1 .8-.4 1.2 0 1.7 1.7.2.9.5 1.3.9 1.3.5 0 3.2-2.7 3.2-3.2 0-.2-.4-1.1-1-2l-.9-1.5 1.3-1.2c1.1-1 1.3-1.1 2.5-1l4 .4c3 .2 2.8 0 3 2 .1.3 1 1 2.6 1.9l2.5 1.3.4 2.3a22 22 0 0 0 5.2 10 49 49 0 0 1 4.4 6.1l2 3.4.2 4a22 22 0 0 1 0 4.3c-.3.4-1.1-.3-1.1-1 0-.5-3-2.8-3.5-2.8s-3.2 3.8-3 4.4c0 .3.5.8 1.1 1.2.9.5 1.3.6 2 .4l1-.3v3.5h-.8c-.5 0-1.2 0-1.5.2-.5.4-.5.4.4 2l.9 1.6-1.2 1c-1.2 1.2-1.2 1.2-3.5 1.2H418l-1 1.6c-1.1 1.7-1.2 2.1-.7 2.6.3.3.1 1-.3 1-.2 0-.5-.6-.7-1.2Z"/>
    <path d="M391.4 131.7c-.3-.6-.2-1 .5-1.8l.7-1-1-1.6a7.4 7.4 0 0 0-4.8-3.1l-1.5-.3c-.2-.1-1 .3-1.7.9-.8.5-1.5.9-1.7.8-.1-.1-.3-.6-.3-1.2 0-.9-.3-1.3-2-3-2.5-2.7-3.5-4.5-3.5-6.8v-1.7l2-1c1-.5 2-1.1 2-1.3 0-.3-.4-1-1-1.7l-1.3-1.2 1.7-1.5c1.2-1 1.9-1.4 2.3-1.3l1.3.3.8.2-.2-1.5c-.1-1.3 0-1.5 1-2.8a26 26 0 0 0 1.4-1.7c0-.2-.5-1.1-1.6-2.3l-1.8-1.9.2-1.4c.2-1.3.2-1.3-.8-2-.9-.5-1-.7-1-1.2.6-1.7.6-1.8-.3-2.5-.5-.4-1-.7-1-.9l2-1.4a9 9 0 0 0 2.2-2c.1-.4.4-.6 1-.6 1.1 0 1.1 0 1.6-2.3.4-1.6.4-1.8-.1-2.4-.5-.7-.5-.7 0-1 .4-.2.6-.2 1 .2l1.4 1.2 1 .8 2.7-1c1.6-.6 3-1.3 3.7-2 .9-.7 1.5-1 2.7-1.1 1-.1 2-.5 2.6-1 1.5-1 2.1-.9 3.3 1.1 1 1.5 1.2 1.8 2 1.8 1 0 1.3.2 2 2 .2.7.6 1.5.8 1.8.4.5.4.5 1.3 0 .9-.4 1-.4 1.9.1l2.6 2.3 2 1.8c.3 0 2 6.8 2 7.9 0 .2-1.4.2-2.3-.2a8 8 0 0 1-2-1.7c-.7-.8-1.5-1.4-1.9-1.4a51.8 51.8 0 0 0-5.2 7.2c-.2.5.1 1.7 2.5 9.5 1.6 5 2.5 7 3.8 8 .4.3.6.3 1.3-.2.9-.7 1.4-.8 1.4-.3l-1.4 2c-1.2 1.4-1.4 2-2.2 4.7-1 3.7-1.1 4.2-1.8 4.2-1 0-1.2-.4-.8-1.7.3-1.3 0-1.8-1.1-1.8-.8 0-7.1 3.7-7.3 4.3-.1.2 0 1 .3 2 .3.8.5 1.6.3 1.7 0 .2-.6.5-1.1.7-.6.1-1 .4-1 .5 0 .2-1.6.3-3.6.3-3 0-3.6.1-4.4.6-1 .7-1.2.7-1.6-.1Z"/>
    <path d="M388.5 77.7c-1.3-1-1.5-1.2-2.2-.9-.7.4-.8.3-1.9-.7l-1-1h-4.7l-1.1-1.2c-1.1-1.1-1.2-1.3-1.2-3s.1-2 1-3c.8-1 1-1.6 1-2.4 0-.7.3-1.3 1-2.1.9-1.2.9-1.2.3-1.8-1-1.1-3.1-2.4-5-3.1-1-.4-2-.8-2.1-1-.4-.3.4-1.9 2.8-5.2 2.5-3.4 2.8-3.9 2.8-4.8 0-.4.1-.9.3-1l3.5-.4c2-.1 3.3-.3 3.5-.6.5-.5.8-4.1.3-4.7-.2-.2-1-.4-2.4-.5-1.8 0-2.4-.2-3.1-.8-.6-.3-1-.9-1-1 0-.5 3.2-6.2 5-9.1.9-1.5 4.2-4.6 8.3-7.7 4-3.1 14-9.8 14.6-9.8l2.1.6a8 8 0 0 0 2.2.5c.8 0 3.7-2 3.9-2.7.1-.7-.4-1-2.8-1.1-2.2-.2-2.6-.6-1.7-1.3.2-.2.7-1.2 1-2.3.6-1.9.6-1.9 3-3.4 1.2-.9 2.5-1.6 2.8-1.7.2 0 .9.3 1.4.8l1 .8-.5 2c-.8 3.3-1 3.2 4.3 4 1.9.4 3.6.8 3.8 1 1 .8 0 2.8-1.3 2.8-1 0-1.4.3-3 2.4-1 1.6-1.2 1.7-2.1 1.6-.8-.2-1.2 0-2.4 1-1.5 1.1-1.6 1.3-2 3.2-.3 2.3-.1 2.2-2.8 2-2.9-.2-3.2 0-2.9 2.2l.5 1.8c.2.3 1.4.6 3.2.9a9 9 0 0 1 3.1.7c.2 0 .5 1.2.8 2.5l.6 2.3-1.2 1.8c-1.6 2.3-1.5 2.6 1 2.6 1.6 0 2-.1 3.3-1 1.7-1 1.9-1.1 4.1-.7 1.4.3 1.8.3 3.4-.2 2.3-.9 3-.8 4 .2l.8.8-2.2 2.3-2.2 2.3 1.2 4.5 1 5c-.1.2-.8.4-2.2.4h-2v1.2c0 .8-.4 2-.8 3s-.7 2.2-.7 2.7-.1 1.6-.4 2.4l-.3 1.4-2 .2c-1.8 0-2.2.2-3.2 1-.5.6-1.2 1-1.4 1l-1.4-2c-1.2-2.3-1.3-2.3-4.4-1.6-2.5.6-2.6.6-3 1.4-.2.5-.6.8-1.4.9-1 .1-1.2.4-2.2 2-.6 1-1.8 2.5-2.7 3.2-2.3 2-3 3.1-3 5 0 2-.5 2.5-2.9 2.8a4 4 0 0 0-2.7 1.2c-1 .9-4.8 2.6-5.8 2.6a7 7 0 0 1-1.6-1.2ZM378 18c-.9-1-1-1.4-1-2.8 0-1.3 0-1.6.7-1.7l1.4-.8 1-.5c.8 0 .1 6.6-.7 6.8-.1 0-.7-.4-1.3-1Zm39 244.1c-.3-.2-.1-.8.7-2.4l1.1-2.5c0-.2-.8-1.7-1.8-3.3a15.5 15.5 0 0 0-3.5-4.2c-.9-.7-1.6-1.5-1.6-1.8 0-.5.9-3.2 1.2-3.6.2-.2 1.2-.4 2.2-.6 2.3-.4 3.5-.9 3.5-1.3a22.1 22.1 0 0 1-1-5.6 10 10 0 0 0-.9-4.6c-.7-1.6-.8-2.3-.4-2.3l.7-.5c.5-.3.5-.4 0-1-.3-.7-.3-.8.4-2.1l.7-1.3h4.5l1.6-1.4 1.5-1.5-.8-1.6-.7-1.5 1-.1c.9-.1 1.1-.3 1.3-.8.3-1.2.3-4 0-4.2-.2-.1-.8 0-1.4.1-.8.2-1.2.2-1.9-.1l-.8-.7c0-.1.5-1 1.2-1.9l1.2-1.6 1.3 1c1 .6 1.4 1.2 1.4 1.7.1.6.4.9 1 1.2.9.3 1 .6 1.2 1.5l.8 3.5c.6 2.3.6 3.5.8 14.4l.1 12-1.8 4-1.9 4-3.5 1-4 1.4a6 6 0 0 0-.5 2.3 10 10 0 0 1-.7 3.3c-.4 1-.6 1.3-1.2 1.3-.4 0-.9 0-1-.2Z"/>
    <path d="M330 199.3c-2-1.5-2.2-1.8-3.2-4.3a36 36 0 0 0-5.5-7.7l-.7-1-1.9.8-1.8.8-1.8-1.8-1.8-1.7-2.1.1-2.6.4a14 14 0 0 0-2 3.5 14.6 14.6 0 0 0-1.9 5.1c-.1 1.3-.4 2-.8 2.3-.5.5-.6.5-1.3-.5-.6-.6-1-.9-1.3-.7-.9.3-5 3.1-6 4.1l-1 1-1-.8c-1-.9-1-1.1-.4-7.6.3-2.6.4-4.8.3-5 0-.2-.5-.5-1-.6-.7-.1-1.2-.6-2-1.8-1.1-1.4-1.2-1.7-1-2.7l.3-1.5c0-.3-.2-.7-1.2-1.3-.8-.5-1.3-1-1.3-1.3 0-.6-1.1-2.6-2.2-4.1-.5-.7-1-1-1.9-1.1-1-.2-1.1-.2-.7-.7.4-.5.5-.7.2-1.5-.6-1.8-1-2-5.2-2l-4-.1v-1.4c0-.9.1-1.8.5-2.7l.6-1.9a8 8 0 0 0-1.3-2.4 6.8 6.8 0 0 1-1.6-3.7c-.3-2-.5-2.7-.9-2.7-.7 0-.5-1 .4-2.1l.9-1.3-1-5.4-1.1-5.4-1.5-1.5-1.5-1.5 1.7-1.6c1.5-1.6 1.7-1.7 2.7-1.6 1.6.3 1.9-.3 2.3-3.5l.5-3.2c0-.3 1-1.5 2-2.6 1-1.2 1.8-2.3 1.8-2.6 0-.8-4.4-7.2-5.7-8.3-1.2-1-1.3-1.3-1.9-4-.3-1.4-.6-3-.5-3.1.1-.5 1.9-1.8 2.4-1.8.1 0 .5.5.8 1.2.8 1.5 1.5 1.5 2.3-.2.8-1.6 1.4-2 4.3-2.7 2.5-.6 3-.6 3 .1 0 .6 1.7 2 2.4 2 .4 0 2.3-.7 4.1-1.5l4-1.6c1-.3 1-.9.3-2.6-.9-1.9-.9-2.4-.3-3.2.3-.4.7-.5 2.6-.4 2 0 2.2 0 3.2-.8l1.2-1c.2 0 1.6 1.3 3.3 2.7 2.2 2.1 2.8 2.7 2.4 2.8-.6.1-1.3.6-1.3 1l2.2 1.8c2 1.5 2.8 1.8 6.1 3 5.2 1.6 5.2 1.5 3.7-3a21 21 0 0 1-1-3.7c0-.4.3-.5 2.6-.4h2.7l.6-1.6c.3-.9.7-1.7 1-1.8l2.1-.3c2.3-.3 2.8-.6 2.6-1.4-.1-.4.2-.9 1.2-1.9.7-.6 1.3-1.3 1.3-1.5 0 0-.9-.9-2-1.7-2.1-1.5-2.2-1.7-2.4-4-.2-1.7 0-1.8 2.3-3.2a81 81 0 0 0 10.3-6.4c1.8-1.5 2.1-1.6 3.2-1.5 1.2 0 1.2 0 .8 2 0 .4 0 .8.3.8a77 77 0 0 0 10.2-2.1c.2-.2 1.5-2.4 2.8-5l2.5-4.9 2.3-1.2c2.3-1.2 2.3-1.2 4-.9 1.2.2 1.8.5 2.3 1l.6 1.1.6.4c.9.2 4-2 4.5-3.2.5-1.2.4-1.2 3.4 0 1.7.7 4 2.3 4 2.8l-.7 1a3 3 0 0 0-.5 1.6c0 1-.4 1.7-1.5 3-.8.9-.8 1.2-.8 3s0 2.2.5 2.6c.4.3.7.8.8 1 .3 1 2.2 1.6 4.2 1.4l1.9-.2 1.6 1.7 1.6 1.8-.4 1.5c-.3 1.4-.4 1.5-1.3 1.6-.7.2-1 .4-1.1.9-.2.5-1 1.2-2.4 2.1-1.3.8-2.2 1.7-2.2 2 0 .2.4.6 1 1 .8.6 1 .8.8 1.3-.5 1.8-.5 1.9.6 2.5 1 .7 1 .8.9 2-.2 1.3-.2 1.4 1.4 3l1.6 2c0 .3-.5 1-1.2 1.8-1 1-1.2 1.4-1 2.3 0 1 0 1-.9.8-.9-.1-1.2 0-3 1.6a9 9 0 0 0-2 2.2l1 1.3c.6.5 1 1 1 1.2l-1.8 1.2-1.8.9v1.9c-.2 2.6 1 5 3.5 7.3l1.8 1.8.4 2.4c.6 3.4.6 3.3-1 3.3-1.4 0-1.5 0-2.1 1.3-.9 1.7-1.9 2-5 2-2.1 0-2.2 0-2.7.8a4 4 0 0 0-.5 1.2c0 .3.6 1.6 1.3 3l1.3 2.4-.9 1.2-.9 1 .5 2.2c.4 2 .6 2.4 2.7 5.2 2.4 3 2.5 3.4 1 3.4-.7 0-1 1-1 3.3v1.1l-1.8.6-1.8.6.1 1.7.1 1.7-2.8 1.5-2.9 1.5.2 4.2c0 4 0 4.1-.6 4.5-.9.5-.7 1 .7 1.8 1.2.7 1.2.7 1 2.7l-.3 1.2 1.9 1c1 .7 2 1.3 2 1.6.1.2 0 .8-.2 1.4-.3.8-.2 1.3.3 3.4.8 2.8.7 3-1.2 3.5-1.1.3-1.4.6-2.3 2-1 1.6-1.1 1.7-2.7 2-1 .4-2.5 1-4.2 2.2-2.3 1.6-2.6 1.7-3.8 1.5-1-.2-1.5 0-2.9.5-2 1-2.4 1-4.2-.1l-1.4-1-2.4.8a13 13 0 0 1-7.5.4c-1.2-.3-1.3-.3-3 1l-2 1.4c-.2 0-1-.7-2.1-1.5Zm-9.7-122.7c-.3-1.8-.2-2 .9-2.5 1.2-.5 3.6-.4 3.8 0 .1.4-2.6 2.6-3.9 3.3-.5.3-.6.2-.8-.8ZM309 71.5a5 5 0 0 1-1.6-.7c-.3-.2-1-3.6-1-4.8 0-.6 0-.7 2.5-.6l2.5.1-.1-.8-.2-1.6c0-.5.1-.7.6-.7.4 0 .6.3.8 1 .2 1.1.4 1.3 2.2 2l2 1-1.5 1.9c-3 4-3.4 4.1-6.3 3.2Zm6.4-7.2c-2.2-1.2-2.1-2.7.2-3.1 1-.2 1-.1 1.4.8.3 1 .4 3.1 0 3l-1.6-.7Zm4.8-4.1c-.8-.8-.3-1.3 2.7-2.8 3.9-2 4-2 3.8 0l-.4 1.8c0 .2-1.1.6-2.3.8-2.7.6-3.3.6-3.8.2Zm125.3 149a12 12 0 0 1-1.4-.9 39 39 0 0 1-5.2-7.3c-1.2-2.2-1.5-2.6-2.6-3-1-.5-2.2-1.7-6.4-6.9l-5.1-6.2-2.4-1a12.5 12.5 0 0 1-6.1-5.5c-1.6-2.4-1.8-3.3-1-4.1.4-.4.4-.8.2-1.9-.3-1.4-.4-1.5-2.6-2.4-1-.4-1-1-.3-1.5.4-.3.8 0 2.3 1.6l4.2 4a12 12 0 0 1 2.8 3c.4 1 1 1.4 5.7 4 9 5 11.6 6.5 11.8 6.8.2.1-.4.6-1.6 1-1 .6-2 1.2-2.1 1.4 0 .2.5 2 1.3 3.8l2.2 5c.9 2 1.1 2 7.1 4 3.7 1.2 5.6 2.3 3.8 2.3l-2.4-.3c-1.2-.2-1.7-.1-2 .1-.4.4-.4.3 1 3.6.5 1 .2 1.2-1.2.4Zm-229.2 64.1c-.7 0-1-.3-1.7-1.4l-1-1.8c-.3-.7-.9-.9-1.8-.4-.8.4-3.2.5-4.5.1-.7-.2-4.7-5.4-4.4-5.8l.8-.2c.6 0 .8-.3 1.1-1.2.3-1 .3-1.2 0-1.4-1.7-1-1.6-1 .9-1.8 2.4-.8 2.5-.9 3.6-2.5 1.3-1.8 1.5-2 3.3-1.5 1.3.3 1.5.1 1.8-1.5.4-2.2.4-2.2 3-1.7l2.6.8c.4.2 0 1-.9 1.9-.8.6-.8.8-.7 2.7v2l1.3.4c1.1.2 1.4.2 2-.1.5-.4.6-.3 1.5 1.5l1.5 3 .6 1.1-.8.8-.8.9.9 1c.9 1 1 1.7.3 2l-2.8.7c-2.2.4-2.5.6-3.3 1.6-.5.6-1 1-1.2 1-.2 0-.7 0-1.3-.2Z"/>
    <path d="m192.3 238.5-3 1.2a24 24 0 0 1-6.1 1.8l-3.7.8c.9 1.4 1.5 3.3 4.2 10.8a64 64 0 0 0 2.3 5.8l1.3-1.5c1.5-2.1 2.1-1.8 3.2 1.9l.4 1.6h9.4l1 1.2c.7 1.1 1 1.3 1.6 1.2.4-.1.8-.4 1-.7.4-.7.3-.8-1.5-1.8-.7-.4-.8-.6-.5-.9.2-.3.4-.4.6-.4l2.7-.8c2.4-.7 2.4-.7 3.8-2.6l1.3-1.8 1.5.1c1.5.2 1.6.2 1.7-.6l.7-2c.3-.8.3-1.8.2-3.6l-.2-2.4-2.8-3.2c-1.5-1.8-3-3.3-3-3.3-.3 0-.6.2-.8.5-.6.7-1.3 1-4 1.3l-2.7.3-1.4 1.5a6 6 0 0 1-1.8 1.6c-.2 0-1.5-1.4-2.9-3l-2.5-3ZM282 261l-2.7-.6-.9-2.5-1-2.6a195 195 0 0 0-13.2-2.9c-1.3 0-1.8-.8-1.7-2.4.2-1 .4-1.5.9-1.8.8-.6.7-.6 2.1-2.2 1.3-1.5 2.2-1.5 2.4-.2.2.8.5 1 3.8 2.7 2.5 1.2 4 1.7 4.7 1.7.8 0 1.7.4 2.8 1.1 1.5 1 1.7 1.2 1.6 2 0 .8 0 .8 1 1 .6 0 1.2.2 1.6.8l.7.7 1.3-.6c1.7-.9 2.2-1.4 2.2-2.3 0-.5.6-1.4 1.8-2.8 1-1 2-2.5 2.2-3 .3-.9 2.5-3.7 6-7.6.4-.3.7-1.4.9-3.1.7-5.8.7-6.5.2-7.2-.2-.4-.8-1.8-1.2-3.2-.8-2.5-.8-2.5-.4-4.2.6-2 .7-1.7-1.4-3.4-1-.7-.6-1.7 1.1-2.5 1-.5 1.4-1 1.6-1.5.2-.8.2-.9 2.2-1 2.2-.2 2.8-.6 2.8-1.7 0-.6.3-.7 1.8-.3 1 .3 1.3.3 1.7-.1.7-.6 1-.5 1.4.3.3.8.4.8 2.8.4 1.5-.3 2-.6 3.1-1.5 1-.9 1.3-1.3 1.5-2.4.2-1 .5-1.6 1.3-2.3 1.5-1.5 2.3-1.3 1.1.2-.8 1.1-.7 2.3.6 4.6 1.9 3.8 3 5.4 4 5.6.4 0 1.5.5 2.3 1 1.4.8 1.5 1 1.5 2s-.1 1.1-.9 1.4c-1 .5-2.6 2.3-4.9 5.6l-1.9 2.8c-.6.8.2 3 1.3 3.4 1.6.7 1.5 1.8-.6 4.3-.9 1-2 2-3.3 2.6-1.8 1-2 1.1-2.2 2.2-.2 1-.5 1.4-1.3 2.1-.7.5-1.5 1.5-1.8 2-.5 1.1-.6 1.2-1.8 1.2-1 0-1.5.2-2.4.9-.8.6-1.4.8-1.8.7-.8-.2-2.6.7-2.6 1.3 0 .3.1.9.3 1.2.3.6.2.9-.3 1.6-.9 1.3-.8 2 .4 2.6l1 .5-1 .7c-.7.5-1 1-1.1 1.8-.2 1.3-.4 1.3-3.5.6-1.5-.4-2.7-.4-4.9-.3l-2.8.2-2.3 1.6a9.2 9.2 0 0 1-2.9 1.5l-3.3-.6Z"/>
    <path d="M303.5 260.5c-1-.8-1.2-1-1.1-1.9 0-.8.2-1.1 1.2-1.9.7-.5 1.2-1 1.2-1.2 0-.2-.4-.6-1-.9-1.4-.5-1.5-.8-.6-1.9.5-.7.6-.9.3-1.8-.3-1-.3-1.1.2-1.4.2-.3.8-.4 1.3-.3.6.1 1 0 2-.7.7-.6 1.5-1 2.6-1 1.3-.3 1.5-.4 1.9-1.2.3-.5 1-1.5 1.8-2.2.9-.9 1.4-1.6 1.5-2.3.2-1 .4-1.1 2-1.9 1.5-.6 2-1.2 3.4-2.9 1.6-2 1.7-2.2 1.6-3.4 0-1.2-.2-1.4-1-1.7-1.3-.6-1.8-2.1-1-3l1.7-2.4c1.8-2.8 3.7-5 4.4-5.1 1.2-.3 1.5-.8 1.5-2.1 0-1-.2-1.4-.7-2a10 10 0 0 0-3.8-1.8c-.7 0-4.3-6-4.5-7.5-.1-.6 0-.7 1.8-1 3.4-.7 4.5-1.6 4.1-3.5-.3-2.3-.4-2.4-1.4-2.6-1.3-.2-1.9-1.2-1.9-3.5 0-2 0-2 2.9-2h1.9l.6 1.4c.5 1.3 1 1.8 2.9 3.3 1.2 1 3 2.2 3.9 2.7 1.6.9 1.6 1 1.6 2 0 .8 0 1 1 1.6l1 .6.8-.7.8-.6 1.1 1.3c.5.7 1.1 1.3 1.3 1.3l1.1-.6c.5-.4.9-.6 1-.5l.6 2.1c.4 1.2 1 2.4 1.3 2.8l.8.7-.7.7c-.3.5-.5 1-.4 1.2 0 .2.9 1 1.9 1.9l1.8 1.5-1.6 1.6a9 9 0 0 0-2.3 3.6c-.9 2.1-.8 2.7.3 3 .5 0 1.4.8 2 1.5l1.3 1.5-.7 1.7c-.8 1.7-.8 1.9-.7 6 0 4 0 4.3.8 5 .8.9.5 1.3-1 2-.5.2-1 .7-1.5 1.8-.4 1-.9 1.7-1.3 1.8a7 7 0 0 1-4.7.2c-2.2-.6-2.6-.6-3.5.7-.9 1.3-1 1.4-3.2.7-2-.5-4.3-.4-5 .3l-1.9 3c-1.4 2.4-1.6 2.6-5 5.1l-3.7 2.7-4.8.6c-6.5.8-6.8.8-8.2-.4Z"/>
    <path d="M284 254.3c0-.4-.5-.6-1.3-.7-1-.2-1-.3-1-.9.2-1-3.5-3.3-5-3.3-1 0-2.2-.5-4.6-1.6-3-1.5-3.3-1.8-3.5-2.5-.3-1.9-1.8-1.9-3.5-.1-1.2 1.3-1.3 1.3-2 .8-.5-.3-.8-.4-1.4-.1-.7.3-1 .2-3.7-1.3-2.5-1.4-3.1-1.6-4.4-1.7-1.5 0-1.6 0-2.8-1.4l-1.3-1.6c0-.1.6-.6 1.4-1.1l1.5-1 .5-3c.5-2.7.5-3.2.1-4.2-.4-1.3-.6-1 2-4l1.2-1.4-1-2.3a21 21 0 0 1-.8-2.8l.8-2 1-1.7 1.6-.2c2.5-.3 2.8-.4 3.2-1.2.2-.4.5-.7.6-.6l1.4 1.6c1 1.3 1.3 1.5 2.1 1.4 1 0 1 0 1-1.7 0-1.5.1-1.8 2.2-5l2.2-3.3-.4-1c-.6-1.5-.6-1.5.6-1.7.8-.2 1.2 0 2.8 1 1.8 1 3.8 1.7 4.5 1.5.1 0 .3-.5.3-.9s.3-1.3.6-2c.8-1.7.8-2-.6-2.8-1.2-.8-1.3-1-.7-2.1.2-.4.4-1.4.4-2.2 0-1.5 0-1.5-1-1.9a5 5 0 0 1-1.7-1c-.7-.9-.8-1-.5-2 .2-.6.3-1.6.3-2.1 0-.8.4-1.4 1.3-2.4 1.2-1.5 1.3-1.7 1.8-4.8l.5-3.2-1-1-1.2-.9.3-3 .2-3.1 2-1.3c1.7-1.2 2-1.3 2.2-.8.2.4 0 .7-.7 1.4-1 1.2-.9 1.4 1.4 1.7l1.7.3 1.1 1.7a13 13 0 0 1 1.2 2.6c0 .6.4 1 1.3 1.6 1 .8 1.2.9 1 1.6a4 4 0 0 0-.4 1.2c0 .8 2.6 4.6 3.2 4.6 1.2 0 1.3.2.7 6.4l-.5 5.8 1.1 1c1.7 1.4 2 1.4 3.5.1 1-1 5-3.8 5.5-3.8.2 0 .6.5 1 1 .5.6 1 1 1.1 1 .2 0 .7-.6 1.3-1.3.9-1.1 1-1.6 1-2.7 0-1 .4-2.2 1.6-4.7 1.5-3.2 1.6-3.3 2.6-3.5 2.7-.4 3-.3 5 1.6.9 1 1.8 1.7 2 1.7l1.4-.6c.6-.3 1.4-.5 1.6-.5.5 0 5 5.3 5.1 6.2 0 .2-.5.4-2.1.5-2.5.3-2.7.5-2.7 2.9 0 2.1.8 3.8 2 4 1 .2 1.5 1.2 1.4 2.6-.1 1-1.2 1.7-3.3 2l-1.4.2.5-.6c.6-1 .6-1-.4-1.6-.8-.4-.8-.4-2.3.8-1.2 1-1.4 1.3-1.6 2.4-.1.9-.5 1.7-1 2.3-1.2 1.3-1.5 1.4-3.5 1.7-1.6.2-1.6.2-2-.7-.3-1-.6-1.1-1.7-.3-.8.6-1 .6-2.1.2-1.5-.5-1.8-.4-2.1.8-.3 1.1-.6 1.3-2.5 1.3-2 0-2.5.2-2.5 1s-.3 1.1-2 2c-.8.4-1.1.8-1.2 1.6-.3 1.1-.1 1.6.5 1.8l1.1.8c.6.5.6.6.2 2.2-.4 1.8-.4 1.8.5 4.6.5 1.6 1 3 1.2 3 .3.5.3 3.1 0 5.4l-.5 2.8c-.1.6-1 2-3.2 4.3-1.8 2-3.1 3.8-3.3 4.5-.2.5-1.2 2-2.3 3.2-1.5 1.6-2 2.4-2 3 0 .6-.2 1-1 1.3l-1.3.7c-.2 0-.3-.2-.4-.5Zm-64.3 4.7c-.5-.2-.7-.5-.8-1.6 0-1.2 0-1.4.7-1.9 1.5-1 4.5-4 4.5-4.6l-.5-2.2c-.5-2.4-.5-3 .4-4.1.7-1 .7-1 .3-2.1-.4-1-.4-1.3-.1-2.2.3-1.2.2-1.4-1-1l-1 .2c-.1 0 0-.7.3-1.4.5-1.3.5-1.3-.1-2.5-.6-1-.7-2-.1-2 .1 0 .6.6 1 1.3 1 1.4 1.3 1.5 4.5.8 1-.2 2-.2 2.1-.1.2.1.4.8.6 1.5.1.7 1 2.9 2 4.9l2 4c0 .2-.5.8-1 1.4-.5.5-1.1 1.5-1.3 2.2-.3 1-.8 1.6-2.8 3.3-1.6 1.3-2.5 2.3-2.6 2.8-.4 1.9-.5 2-2.6 2.2-2.6.2-3 .4-3 1 .2.5-.5.7-1.5.2Z"/>
    <path d="M220.9 252.7c0-.4-.6-.6-3.8-1.3-1.5-.3-1.6-.4-1.8-1.4l-.2-2.7c0-1.6 0-1.7-1.8-3.7-1-1.2-2.4-3-3.3-3.9l-1.5-1.7-.4-3.6-.6-4.9-.2-1.3 2.1-.4c1.2-.3 3-1 3.7-1.4 1.3-.8 2-1 4.9-1.2l3.3-.2a15 15 0 0 1 2.8 4.6c0 .4-.4 1-1 1.7-.7.6-1.4 1.6-1.7 2.1-.6 1-.6 1 .1 2.3l.7 1.3-.7 1.5-.6 2c0 .3 0 .3 1.9-.2.4-.2.5-.1.3.4 0 .4 0 1.1.3 1.7.5 1 .5 1-.3 2.1-.8 1.2-.8 1.3-.5 2.8.8 3.6.8 3.8-.3 4.8-1 1.1-1.4 1.3-1.4.6Zm21.7-176.1.5-4c.4-2.7.7-3.6 1-3.9.9-.6 1.2-.5 1.7.4.3.6.6.7 1.4.7 1 0 1 0 1.9 1.9.7 1.4.8 2 .6 2.2-.4.3-6.8 3.3-7 3.3-.1 0-.2-.3-.1-.6Zm-5.2-5.2a37 37 0 0 1-2.6-.7L234 69c-.3-1.3-.4-2-.2-3.1.2-1.4.3-1.5 1.4-1.9 1.7-.6 4-.5 5 .2.7.5.8.6.8 3.8.1 2.8 0 3.3-.4 3.6a2 2 0 0 1-.6.4l-2.6-.6Zm-5.4-9.3c-.9-.9-1-1.1-.7-2l.6-2c.3-1.4 1.5-3 2-3 .7 0 2.6 3.2 2.8 4.5.3 2 0 2.5-1.8 3-2 .6-2 .6-3-.5Z"/>
    <path d="M264.8 136.1c.9.2 1.7.8 2.6 1.7l1.3 1.4 1 4.8a92 92 0 0 1 .8 5c0 .2-.4 1-1 1.6-1.2 1.5-1.2 1.9-.2 2.7.7.5.9.8 1 2.4.2 1.5.5 2.1 1.5 3.8a9 9 0 0 1 1.3 2.3c0 .3-.2 1-.6 1.7-.5 1-.6 1.5-.4 3 0 1 .2 2 .3 2 .2.3.8.3 4.7.3h2.8l-1.7 1.2c-1 .6-1.8 1.3-2 1.5l-.2 3.7v3.2l.9.8c.9.8 1 .9.8 2-.8 5.3-.7 5-2 6.3-1.1 1-1.3 1.4-1.4 3l-.4 2.4c-.3.8 1.2 2.6 2.6 3.2 1.2.5 1.2 1.2.2 3.1l-.7 1.6c0 .1.6.6 1.3 1 1 .6 1.3 1 1.2 1.3l-.5 1.4-.4 1.4c-.1.4-.9.4-1.8 0l-2.4-1.2c-1.4-.9-1.9-1-2.7-.9-.8.2-1.7.4-2 .6v1c1 1.7 1 1.8-1.2 5.2-2 2.9-2.2 3.4-2.2 4.6 0 2-.5 1.8-2.1-.3-.7-1-1.5-1.7-1.6-1.7-.1 0-.6.4-1 1-.9 1-1 1-3 1.2l-2 .2-1 2c-.6 1.1-1 2.2-1 2.5 0 .2.3 1.4.8 2.7 1 2.5 1 2.2-1.3 4.9l-1.4 1.5.5 1.3c.4 1.2.4 1.6 0 4l-.5 2.8-1.5 1c-1 .6-1.6 1.3-1.6 1.5 0 .3.8 1.3 1.7 2.3l1.6 2c0 .1-1.4.6-3.2 1.1l-3.1 1-.3 1.2c-.2.7-.5 1.3-1 1.6-.3.3-1.1 1.3-1.7 2.4-2 3.2-3 4-6.7 4.7-.2 0-1.4 0-2.6-.2-1.9-.3-2.4-.5-3-1.1l-.9-.8 1.7-1.5c1.1-1 1.7-1.9 1.9-2.6a6 6 0 0 1 1.3-2.3c.6-.6 1-1.4 1-1.6l-2-4.3c-1-2.2-2-4.5-2.1-5.2-.4-2-.6-2.1-3-1.6-3.1.6-3.6.6-4.3-.5-1-1.5-1-1.8-.1-2.7.7-.7.9-1 .9-2 0-1.1-.3-1.7-1.3-3.2l-1.3-1.8.5-.8c.4-.5.5-1 .4-1.6-.1-.8 0-1.2 1-2.4s1.2-1.7 1.2-2.7c0-1 0-1.2-1-1.4-3.9-1-3.6-.8-3.6-2 0-1.3.1-1.5 1.8-2.6 1.5-1 1.6-1.2 1-3-.5-1-.6-1-1.8-1-1.2 0-1.3-.2-2.7-2-1.7-2-1.7-2-5.7-2.3-3.3-.2-3.9-.6-3-1.9.5-.9.5-.9 0-2.6-.5-1.2-.6-1.7-.3-1.8a38 38 0 0 0 5-3.7c.4-.5.3-.7-1.6-1.8-1.4-.8-2-1.3-2.4-2.1-.6-1.3-.5-1.4 2-4.2 1.8-1.8 1.9-2.2 1.2-4.2-.5-1.4-.5-1.4.3-2.5 1.5-2 1.6-2.4 1.6-4.7 0-2.6-.3-3.1-2.4-3.6-1.5-.5-1.4-.1-1.5-3.8l-.1-2c0-.1-.5-.5-1-.7l-1-.4-.2-3c-.2-2.4-.3-3-1-4.2-.5-1-1-2.2-1.2-3.6-.3-2-.2-2.2.3-3.3.5-1 1.7-2.8 2-3.6.3-.9.2-1.3-.7-4l-1-2.8-1.1.2c-2 .3-2.1.3-3.4-1.5l-1.3-2 1.8-1.3a5.8 5.8 0 0 0 2.7-4.7c.2-1.1 0-1.3-1-2.6a8.8 8.8 0 0 1-1.2-1.7c0-.2.7-1 1.5-1.9l1.5-1.5.4.6c1 1.4 1.5 1.8 2.6 1.7l1.1-.1.1-1.8c0-1.7 0-1.8-1.3-3.6L209 116c-.2-.6.3-4.8.6-5.2.1 0 2.4-.4 5.1-.6 7-.7 7.4-.7 7.6-1.2 0-.3-.2-1.1-.6-2l-.8-1.5 1.2-1.8 2.8-3.5c1.3-1.3 2-1.8 5-3.1 2.5-1.1 3.6-1.8 3.8-2.3a8 8 0 0 1 3.3-2c.2 0 .4.4.6.8.7 1.6.9 1.6 4 0l3-1.4v-1c-.2-1-.1-1.1.8-1.4 1.7-.4 1.8-.7 1.4-2.7l-.3-1.7 1.4-2.2a13 13 0 0 1 2-2.7c.7-.5 2-.5 2.5 0 .5.3.4.5-.7 1.7-1.6 2-1.4 2.4 1.2 2.1 2-.2 2-.2 2.2.5l.1 1.3c0 .5.5 1 1 1l1.6-1.4 1.5-1.2h5.2l1.9 1.4c1 .9 2 1.9 2 2.3l.3 3.6v2.9l-2 2.8a125.8 125.8 0 0 0-6.2 10.3c-1.2 2-1.5 3-1 3.2h2c1.5-.2 1.8-.3 4.1-2.5a23 23 0 0 1 2.7-2.2c.2 0 .3.2 1 3.3.4 2 .6 2.3 1.6 3 .6.5 2 2.3 3 3.9 3.1 4.5 3 3.9 1 6.2-2 2.2-2.2 2.7-2.5 5.8-.3 2.7-.4 3-1.8 2.9-1-.1-1.2 0-3.2 2m-88.8 83.9c-.2.1-.4.6-.4 1.1 0 .6-.2 1.2-.7 1.7l-.7.8.6 1c.7 1.2.5 1.3-2 2l-2 .5-.6 2.2-.7 2.2 1 1.5c1.1 1.5 1.1 1.6 0 4l-.4 1.1.7-.1 2-.6c1.1-.3 1.4-.3 1.7 0 .3.3.3.6-.2 1.5-.4.6-.7 1.3-.7 1.5 0 .2.8 1.3 1.8 2.5l1.2 1.4c1.3-.5 2.6-.7 4-1 2.4-.3 4-.8 6.3-1.7l3-1.3 1.6 1.8 2.6 3 1 1.1 1.6-1.5 1.4-1.5 2.6-.2c3-.2 4.3-1 4.3-2.4s-1-8.8-1.1-9c-.1-.1-1 .1-2 .7-1 .5-2 .8-2 .7a10 10 0 0 1-.8-2.6 11 11 0 0 0-.6-2.5l-2.7.2c-2.1.2-2.4.2-2.8-.3-.2-.3-1-.5-2.3-.7l-2-.3-1-1.7a8 8 0 0 0-2-2.2c-1-.7-8.9-3-9.7-2.9Z"/>
    <path d="M163.2 237v-1.3c.2-1.3 0-1.6-2.3-3-1.4-1-2-1.2-2.9-1.1-.7 0-1.2 0-1.3-.4l-.6-4.3-.3-4 1.4-2.8 1.3-2.8 1.8-.4 1.7-.5v-1.7c-.2-2.8-.4-3.4-1.7-3.7-1.1-.3-1.2-.4-1.3-1.6 0-1 .2-1.6 1-2.9.5-.9 1-1.6 1.1-1.5.2 0 .5.6.7 1.2.4 1.3.3 1.2 4.3 2.1.9.3 2.8.5 4.2.6 2.4.2 2.6.2 3.8-.5l1.4-.7-.1 1c-.3.9-.1 1.5.9 4.3 1.4 4.1 1.5 5.2.2 6.6-.9 1-.9 1-.4 2 .3.4.4.9.4 1l-1.8.6c-.9.2-1.7.5-2 .7l-1 2.7-.7 2.3 1 1.5 1.1 1.4-.6 1.5c-.3.8-.5 1.6-.4 1.9.1 1-8.3 2.8-9 1.8Zm39.2-10.1-.4-2.4h-2.8c-1.6 0-2.9-.1-3.1-.3a7 7 0 0 0-2.3-.6c-2-.2-2-.2-3.2-2.1-1.2-2-2.4-2.6-7.2-3.9l-4.6-1.3c-.2 0-.9-1.6-1.5-3.3-1-3-1.1-3.2-.8-4.7.3-1.2.7-2 2.2-3.8 1.8-2.1 2-2.2 3.1-2.3.7 0 1.4-.1 1.6-.4l1.6-3.7 1.4-3.6 2.8.1c2.5.2 2.6.3 3 1l.5.9 2.3-.2c2.3-.2 2.4-.2 4.5.9l2.4 1c.3 0 1.3-.6 2.4-1.3 1.6-1 2.1-1.2 2.5-1 .3.2.5.5.5.6 0 .2.4.4.7.5.5.2 1 .8 1.3 1.7l.6 1.3-.5.8c-.6.8-.6.9-.2 1.7.5.9.7 1 5.2 1.4 2.3.1 2.3.2 3.4 1.5 2.3 2.5 2.5 2.6 3.5 2.6.9 0 1.1.1 1.3.7.5 1.1.4 1.2-1 2.1-1.6 1-1.9 1.6-1.9 3.7 0 .9.1 1 1.3 1.3 2.8.7 3.5 1 3.6 1.4a7 7 0 0 1-1.2 2.3c-1.2 1.5-1.4 2-1.2 2.7.3 1.6-.3 2-4.2 2.2-3.2.3-3.7.4-5.2 1.3-1 .5-2.6 1.1-3.8 1.4-1.2.2-3 .8-4 1.3l-2 .9s-.4-1-.6-2.4Zm22.8 40.7c-.3-.3-.2-.5.3-1 .8-1 .8-1.2-.3-2.8a34 34 0 0 1-1.5-3.1c-.8-2-.7-2.1 1.3-2.1 1.6 0 2.2-.5 2.4-2a4 4 0 0 1 .7-1.6c.6-.5.7-.5 1.6.4.9.9 1.2 1 3.6 1.2 4.9.6 7.5-.6 9.7-4.5a14 14 0 0 1 2-2.6c.6-.6 1-1.2 1-1.6 0-1 .4-1.2 2.3-1.7 5-1.5 5-1.4 4.8-2-.2-1 1.3-.6 4.6 1.1 2.8 1.5 3.2 1.7 4 1.5.6-.3.9-.2 1.2 0 .4.3.3.4-.2 1-1 1-1.3 3.4-.5 4.4l.5 1.1c0 .2-.9 1.6-2 3.1a34 34 0 0 0-2 3l1.2 3.1 1.1 3.3c0 .1-.6.6-1.4 1-1.4.7-1.6.7-7 .7h-5.7l-.3-1.4c-.2-1-.6-1.6-1-1.9a28 28 0 0 0-4.6-1l-4-.6-5.7 2.7a208 208 0 0 1-5.6 2.8l-.5-.5Zm-85.4-45.4c-3-.4-4.4-.4-5.3-.2-.9.3-2 .2-4.4-.2-1.7-.2-3.3-.5-3.4-.7l.6-1.2c.4-.5.7-1.2.6-1.4 0-.2-1-.6-2-.9-1-.2-2-.6-2-.7 0-.4 1.8-2.8 2.8-3.7 1-1 1-1 1-3.2v-2.2l1-.5a5 5 0 0 1 1.7-.5c1.2 0 3.4 1 3.9 1.7.5.8.8.8 2 0 1.2-1 2-.6 1.6.9-.2 1.6 1.6 5.1 2.8 5.4 1.5.3 3.2 1.2 3.7 2a9 9 0 0 0 1.7 2c1.7 1.5 1.8 2.2.7 3-1.2.8-2 .9-7 .4Z"/>
    <path d="M134.6 207.7c-.4-.6-3.2-1.7-4.4-1.7-.3 0-1.1.2-1.8.6l-1.1.6-1.2-.8-1.4-.7c-.3 0-1.2-.4-4.7-2-.6-.2-1-.5-1-.9 0-.8-.4-1-1.6-.4l-1.1.4-2-1c-2-1.1-2-1.1-1.5-3.4l.4-1.5 1.5-.1c1.6-.2 1.6-.2 2.3-1.5.7-1.5 1-1.6 2.7-1.2 1.4.4 1.7.2 1.9-1.1.2-1.2 0-1.1 3.2-2.4.8-.4 1-.6.9-1.4 0-.5.1-1.2.4-1.6.6-1 .6-1.5-.1-2.8-.8-1.5-.8-2.3.2-2.7.8-.4 2.9-2.4 4.8-4.7a6 6 0 0 0 1.2-2.3c.2-1.4 1-2.8 1.5-3.1.2-.2.4-.5.4-.8 0-.3.2-.7.4-1 .4-.6.4-.6.7.3.5 1.4.8 1.7 2.1 2.4 1.1.6 1.7 1.2 3 3.4l1.7 2.7-.7 2.7-.6 2.7.7 1.3c.5 1.2.5 1.3.1 3l-.4 1.8.8.7 1 .7c.2 0 .6.3 1 .7.7.6.9 1 .9 2.4 0 .9.2 2 .4 2.4.2.3.4 1.3.4 2.1v1.5l-1 .2c-1.7.3-2.9.2-3.2-.2-.5-.5-2.4 3.8-2.4 5.4 0 .7 0 1.3-.2 1.3l-1-.5c-.8-.4-.9-.4-1.8.4l-1 .7-.4-.6Z"/>
    <path d="M151.2 222c-2.5-.8-2.7-1-3-1.8a5 5 0 0 0-1.4-1.9 6.3 6.3 0 0 1-1.5-1.6c-.5-1-2.4-2.3-3.8-2.5-1-.2-1.1-.3-2-2-1-2-1-2.4-.2-3.4.4-.5.6-1.2.6-2.2 0-1 .2-2 .7-3 .8-1.4 1-1.5 4.4-1.7h1.3l.1-1.6c.1-1.4.2-1.5.9-1.5a6 6 0 0 0 1.9-.6 23 23 0 0 1 3.8-1.1c2.8-.7 5.3-2.2 6-3.6.1-.4.4-.7.6-.7.1 0 1.5.6 3 1.5 2.8 1.6 2.8 1.6 4.5 4.3.9 1.4 1.8 3.2 2.2 4 .5 1.3.6 1.3 3.2 2.2 1.5.5 2.8 1 3 1.2 0 .1-.5.7-1.3 1.2-1.6 1-1.6 1-3.6.7-2.7-.3-5-.7-6.3-1-1-.3-1.1-.5-1.7-2-.4-1.2-.8-1.8-1.1-1.8-.3 0-1 .9-2 2.2-1.2 2.1-1.3 2.4-1.3 4.2 0 2 .2 2.5 1.4 2.5 1 0 1.3.5 1.5 2.2l.2 1.4-1.7.4-1.6.4-1.6 3.3c-1 2-1.8 3.2-2.1 3.2a33 33 0 0 1-3.1-.9Z"/>
    <path d="M173.3 204.5c-2.6-1-3.4-1.5-3.4-2.1l-2-3.6-2-3.3-3.3-1.9c-3-1.7-3.2-1.8-3.5-1.3-1.4 2.3-3.3 3.5-6.8 4.3a26 26 0 0 0-3.6 1.2c-1.5.7-2.1.6-2.8-.9-.3-.8-.6-1.8-.6-2.8v-1.5l-1.6-1.1c-1.7-1.2-1.7-1.3-1.2-3.5.3-1.3.2-1.6-.3-2.5l-.6-1.2.6-2.7.6-2.7-1.8-3c-1.6-2.7-2-3.1-3.1-3.6-1-.4-1.4-.9-1.7-1.7-.7-1.6-.6-2.7.9-6.3 1.3-3.4 1.6-3.8 4.3-5.8.9-.7 1-1 1-2s.3-1.4 1.3-2.5c1.2-1.3 1.3-1.3 2-1 .7.4.9.3 2.8-1a8.9 8.9 0 0 1 2.8-1.5c.6 0 .7.1.7 1.8 0 1.5-.2 2.1-1 3.4l-.8 1.7 1 1.4 1 1.3 3.1.4c2 .3 3.7.6 4.6 1 1.5.7 1.5.7 1.5 2 0 1.1 0 1.2 1.4 2l1.4.8 2-.6 2.2-.6 1.4 1.1c1.2 1 1.4 1.3 1.5 2.7.1 1 .6 2.4 1.3 3.8l1.1 2.2h1.9c1.8 0 1.9 0 3.8 1.6a7.3 7.3 0 0 0 4.5 2l2.5.4 2 2.2 2 2.2h5.6l1.7-1.4 1.6-1.3 1.7 1.7c1.5 1.7 1.7 1.8 3 1.8.8 0 1.6.3 3 1l2 1.3c.3.1.5.5.4 1-.2 1.4 1 3.3 2.5 4.2.8.5 1.4 1 1.3 1.2-.3.5-4.1 2.8-4.6 2.8-.3 0-.8-.2-1.1-.5-.3-.4-.7-.6-1-.6l-2.5 1.3-2.2 1.4-2.1-1.1c-2.1-1.1-2.2-1.1-4.3-1-2.2.3-2.2.3-2.5-.5-.2-.4-.6-.8-1-.8-1.2-.3-5.8-.4-6.1-.2-.2 0-.9 1.5-1.5 3.2-1.6 4.3-1.6 4.3-2.9 4.3-1 0-1.2.1-3 2.1-1 1.2-2 2.2-2.2 2.2l-3-1Z"/>
    <path d="M207.6 184.8c-1.7-1-2.6-1.2-3.4-1.2-1 0-1.4-.2-2.7-1.7-2.2-2.3-2.2-2.3-4-.6l-1.8 1.4h-5l-1.9-2.1-2-2.2-2.5-.5a7.9 7.9 0 0 1-4.6-2c-2-1.5-2-1.5-3.8-1.6H174l-1-2.3c-.7-1.6-1.1-2.8-1.1-3.6 0-1-.2-1.3-1.5-2.5a6 6 0 0 0-2-1.3l-2.3.5-1.8.6-1.2-.7c-1.1-.7-1.2-.8-1.2-2 0-1.8-1.5-2.5-6.4-3-3-.4-3-.4-3.7-1.4-.9-1.3-.9-1.4 0-3 .6-1 .7-1.6.7-3.4v-2.3l1-.1c.4-.1 1.4-.8 2.2-1.5 1.3-1.2 1.6-1.3 4-1.7 3.4-.6 3.2-.5 5.5-2.7a7.9 7.9 0 0 0 2.4-3.2c.3-1 .3-1.3 0-1.5-1.3-.7-1.3-.7-.3-2.3.7-.8 1.1-1.7 1.1-1.9l-.7-1.8c-.8-1.5-.8-2.3 0-2.3.1 0 1.6 2 3.1 4.3 2 3.1 3 4.4 3.4 4.4.4 0 1-.6 1.5-1.4 1-1.8 1.2-2.5.7-3.4-.4-.5-.5-1-.3-2.3.2-1.7.2-1.7-.9-2.5l-1-1 .6-.8 1.8-3.1c1-2.2 1-2.4.6-3.1-.8-1.3-.4-2 2.3-3.7a13 13 0 0 0 4.6-4.5c1.4-2 2.4-3 2.8-3 .5 0 3.7 1.1 4 1.4.2.2.2 1 .1 1.7-.2 1.3-.5 1.9-2.2 4-1 1.4-2 2.7-2 3l.5 2.3c.5 1.7.5 1.7-.3 4a19 19 0 0 0-.7 2.8l-1 3.5c-.6 1.7-1 3.3-1 3.6 0 .3.3 1.4.7 2.3l.7 1.8-1.2 2.2a9 9 0 0 1-1.4 2.2l-2 2.2c-1.7 2-1.8 2.1-3 2.1a15 15 0 0 1-3.3-.6c-4-1.2-4.8-.3-2 2.5 2 2 4.1 3.3 5.8 3.3 1.7 0 5-1.7 6.3-3.3.6-.7 1.9-1.9 2.8-2.5l1.8-1.1v-3.3c0-3.7.1-4 1.9-4.4 1.6-.3 2.4.3 2.9 2.2 1 3.9.9 3.8 1.7 3.8.5 0 1.2-.3 1.8-.6l1-.6-.3-2a12 12 0 0 0-.4-2.8 9.2 9.2 0 0 0-2.2-2 7.3 7.3 0 0 0-4-1.7c-1.8-.2-2-.3-2.2-1-.5-1.8-.3-2.7 1.2-5a15 15 0 0 0 1.4-2.6l-.7-3.2c-.8-3.2-.7-3.6 1-5.2 1.6-1.3 3.6-2.7 3.7-2.4l-1 3-1 3c0 .7 5.6 3.8 6.7 3.8.7 0 1.4-.8 1.4-1.4 0-.2-.8-1.3-1.8-2.5-1-1.1-2-2.3-2-2.5 0-.8.7-1 1.4-.2.7.6 1.3.7 2.2.2.7-.3.7-.9-.2-2.4-.6-1-.7-1.4-.4-1.7.8-1 2-.1 1.3 1-.3.5-.2.7.1 1 .3.1 1 1 1.7 1.7l1.3 1.4-1.3 1.3c-.8.8-1.4 1.5-1.4 1.7 0 .2.6 1 1.3 1.8 1.4 1.5 1.5 2 1 3.8-.3.8-.8 1.5-2.3 2.6l-2.1 1.9c-.2.3 1.1 2.4 2.7 4.4.8 1 .8 1 2 .6.7-.2 1.4-.2 1.5-.1l1 2.3.7 2-1.5 3-1.4 2.7.3 2.3a11 11 0 0 0 1.2 3.9c.8 1.3 1 1.9 1 4.3.2 3 .4 3.7 1.2 3.7 1 0 1.2.6 1.2 3.2 0 2.8.2 3.1 2.2 3.6 1.4.3 1.5.6 1.5 2.8 0 2 0 2.2-1.1 3.7l-1.3 1.7.5 1.5.5 2c0 .5-2.8 3.6-3.3 3.6l-2.5-1.3Zm-97.4 44.3c0-.2 0-.8.2-1.3.4-1.2 0-1.6-1.5-1.9-2.2-.3-2.3-.5-1.6-2l1.4-3.2c.8-2.3 2.8-4.3 4-4 2 .5 2.1.4 3.1-1.4 1.5-2.8 1.2-3.8-1-3.3a9 9 0 0 1-3.8-.3l-2.6-.7-.7-1.5-.6-1.3.8-.5c1.2-1 1.8-1 3 0 1 .7 1.5.8 3.4 1 2.8.2 2.7.3 3.6-2.5l.8-2a45 45 0 0 1 7.4 3.3c.7.5.9.9 1 2.3.1 1.6.1 1.6-1.3 3.2-1.5 1.6-2.7 3.5-2.7 4.3 0 .2.7.6 1.9.9l1.9.6-.6 1.3c-.8 1.3-1 1.3-4.9 0-2.6-1-3.3-1-4.2.3-.4.7-.4 1 .3 3 .7 2.4.6 2.8-.7 2.1-.8-.4-3-.3-3.6.2a4 4 0 0 0-.6 1.7c-.1.7-.4 1.5-.7 1.7-.5.6-1.5.6-1.7 0Z"/>
    <path d="M108 237.4c-1.4-.9-1.7-1-2.1-.7-1.5 1-1.8 1-3 0-.9-1-1.1-1.5-1.3-2.6-.3-2.4-1.9-3.4-4-2.6-.8.4-.7.4-2.8-2l-.8-1-2.4.5-2.7.6c-.2 0-.5-.6-.7-1.2-.1-.6-.5-1.4-.8-1.7-.5-.6-.6-.6-1.2-.3-.3.1-.7.2-.9.1l-.7-2.8c-.3-1.4-.6-2.9-.8-3.1-.1-.3-.8-.8-1.5-1-1.3-.6-1.3-.7-1.3-2 0-2-.3-2.2-2.5-2l-1.8.2-.1-.9c-.3-1.4-.3-1.3 1-1.7a4 4 0 0 0 1.7-1.2 8 8 0 0 1 3-2c2-1 2.6-1.4 4.7-3.7a13 13 0 0 0 2.4-3.1c0-.3.4 0 1 1 .9 1.3 1 1.6 1 3.6 0 1.8.2 2.5 1.4 5.5 1.3 3 1.3 3.5 1.1 4.7-.3 1.9-.2 2.2 1.2 2h1.3c.3.4-.3 1.8-.9 2.2-.4.3-.4.5.1 1.4.6.9.6 1 .2 1.8-.7 1.3-.5 1.7.7 2 1.7.2 2.6.2 3.2-.2.5-.3.8-.2 1.7.8 1.4 1.2 1.8 1.2 2.7-.5.3-.6.8-1.1 1-1.1 1.2 0 4.2.7 4.2 1l-.5 1.6-.5 1.4 1.6 2.4c2.5 3.7 2.4 3.5 1.4 4.6-.5.6-1 1-1.3 1a8 8 0 0 1-2-1Z"/>
    <path d="M101.4 227c-1-.9-1.2-1-1.8-.7-.8.4-2.8.5-3 .2-.2 0-.1-.6 0-1.1.3-.7.3-1.2 0-1.6-.1-.5 0-1.1.3-2.2.8-2.3.8-2.4-.9-2.4h-1.4l.2-1.5c.1-1.4 0-1.9-1.2-4.6-1.1-2.6-1.4-3.5-1.4-4.8 0-1.6.2-2 1.4-3.8a7 7 0 0 0 1.5-3.3l.2-1.4 2.1-.7c2.6-.8 2.9-1 2.4-1.9-.6-1-.3-1.3 1.6-2l1.8-.7.7 1c.6.7 1 1 2.2 1.1 1.5.2 2.1.8 3.2 2.9.2.4.7 1 1.1 1l1.3.9c1.1 1 4.5 2.6 5 2.5.8-.2.8.2.1 2.2l-.5 1.5h-1.7c-1.7.1-2.9-.4-4-1.6-.3-.3-.7-.6-1-.6-.7 0-3.5 2-3.5 2.6 0 .9 1.5 4 2 4.1a24 24 0 0 0 7.4 1.1c.1.1-.1.8-.6 1.5-.7 1.3-.8 1.3-1.6 1-.5-.2-1.1-.2-1.5-.1a11 11 0 0 0-3.7 3.3l-1.3 3.5c-1 2.4-1.5 3.1-2 3.2-.3 0-.8.5-1.2 1.1-.3.6-.7 1.1-.8 1.1-.2 0-.8-.4-1.4-.9Zm-41.1-9.4a31.8 31.8 0 0 0-1.7-5.2c-1-2.4-1.2-2.7-1.9-2.9-.5 0-1-.5-1.4-1.2-.4-.9-.8-1.2-1.5-1.3l-1-.2v-2.5c0-1.6 0-2.7-.3-3-.2-.2-1.3-.6-2.6-1-2-.4-2.2-.6-2.6-1.4-.4-.8-.4-1.1-.1-1.6l.4-1.8c0-1.1.1-1.2 2.2-2.3l2.5-1a69.4 69.4 0 0 0 4.5 4 8 8 0 0 0 4.5 2.5 8 8 0 0 1 3.7 1.6c.6.6 1.7 1.3 2.4 1.5l1.7.7a29 29 0 0 1 5 10.8c-.4.2-6.3 1.2-8.7 1.5-2.2.2-2.8.6-3.3 2.2-.4 1-1.4 1.4-1.8.6Zm14.1-6.8c-.6-1.9-2.8-6.3-3.6-7.3-.2-.3-.1-.5.4-.6.6-.2.6-.3.4-2.2-.2-2.4-.2-2.5 2.6-2.5 2 0 2.1 0 3.6 1.2l1.7 1.1 1.6-1.3 1.5-1.3.7.9c.7 1 1.2 1 1.9.3.6-.8 1-.8 2 0 .4.5.7 1.3 1 2.5l.4 1.8-2.2 2.4c-2.5 2.8-2.2 2.5-4.5 3.5a9.9 9.9 0 0 0-3.1 2c-.8.8-1.5 1.3-1.9 1.3l-1.2.1c-.6.2-.7 0-1.3-1.9Z"/>
    <path d="M90.8 203.4c-.7-1-1.3-1.7-1.4-1.6-.3.2-1-1.5-1-2.3 0-.4-1.7-1.9-2.2-1.9l-1.1.6-.8.6-.6-.8a3 3 0 0 1-.7-1.1c0-.2-.3-.6-.7-1-.3-.3-.8-1.1-1-1.7-.3-1-.4-1.2-1.3-1.2-1 0-1.3-.1-2-1.2-.4-.6-.7-.8-2-.8-1 0-1.5-.3-1.6-.5 0-.4.2-.5.7-.5h2.2l1.4-.1v-1.2l-.2-1.2 1.6-.6 4.3-1.3 2.6-.8 1 .7c.7.4 1.3.6 1.8.5.7-.2.8 0 1.5 3.7.2 1.3 1.1 3.5 1.5 3.7.1.1 1.4-.2 2.8-.6 1.3-.5 2.6-.8 2.7-.8.6.4.3 1.3-.6 2.3-1 1.2-1 1.5-.1 1.7.9.3 1.7 1.6 1 1.9l-2.2.7-1.7.6-.1 1.3c-.2 1-.6 2-1.3 3l-1.2 1.6-1.3-1.7Z"/>
    <path d="M68.8 201.5c-.8-.2-2-.7-2.6-1.2l-1.2-.7 1.7-1.5 1.7-1.5-.4-1.7c-.2-1-.3-2.2-.2-2.9v-1l1.6-.1c1.4 0 1.6-.2 1.9-1 .1-.4.4-.8.6-.8.7 0 1.6 1 1.6 1.7.1.4.3.8.6.8 3.2.4 3.1.4 3.6 1.3.3.6.6.8 1.4.8 1 0 1.1.1 1.5 1a5 5 0 0 0 1 1.8l.7.7-1.4 1.3-1.4 1.3-1.5-1.2c-1.4-1-1.7-1.1-3.4-1.1-1 0-2.3.1-3 .3l-1 .3.1 2c.3 2.2.3 2.1-2 1.5Zm41.8-1.8c-.2-.1-.8-1-1.3-1.8l-1-1.6-1.7-.4c-1.2-.2-1.7-.5-2.3-1.2-.7-.9-1.8-2.8-1.6-3l1.2-.5c.5-.2 1-.6 1-.8l1.2-2.8a10 10 0 0 0 1.1-3.5c0-1.7.4-2.8 1-3.5.4-.4.9-1 1.1-1.5.4-.7.4-1 0-2-.3-1.1-.3-1.2.3-1.7l3.3-3c0-.2-.6-1.1-1.5-2-1.6-1.7-1.6-1.8-1.5-3.3 0-1.5.1-1.5 1-1.6h1.7c.9.2 1.1.5 1.7 1.6.6 1.3.7 1.4 3 2l2.4.7 2.8-.5c3.2-.6 3.6-.5 7.6 1 1.2.3 2.3.9 2.3 1 0 .3-.3 1-.6 1.5a5 5 0 0 0-.6 1.9c0 1.3-4.2 6-6 6.6l-1 .3.2 1.4c0 .7.3 1.8.6 2.3.5 1 .5 1.1 0 1.8-.2.4-.4 1.1-.4 1.6 0 .8-.2.9-1.7 1.4-1.8.7-2.4 1.2-2.4 2.3 0 .7 0 .7-1.7.5l-1.7-.2-.7 1.5-.8 1.4H114l-1.7.2-.4 2c-.5 2-.8 2.3-1.3 2Z"/>
    <path d="M61.7 198c-2.6-.8-2.8-.9-5.4-3.2a29.7 29.7 0 0 1-2.8-2.9c-.2-.2 0-.5.2-.7.4-.3.5-1 .4-3.8V184l.7-.3c1.1-.4 4.3 1.7 5.6 3.8 1.2 1.8 1.3 1.9 2 1.4.5-.3.8-.3 2.1.3 2.4 1 2.6 1.3 2.7 4.5l.1 2.8-1.3 1.1c-.7.7-1.4 1.2-1.5 1.2l-2.8-.8Zm36.8-3.3c.5-.5.7-1 .7-2.2 0-1.8 0-1.8-3.4-.7-2.4.8-2.5.8-2.9.2-.5-.7-.5-1.3.2-3.1.4-1.1.8-1.6 1.2-1.6.7 0 1-.5 1.3-2 .3-1.8.4-1.9 1.7-1.9 1 0 1.1 0 2.4-2.1 1.6-2.5 1.5-2.5 4.7-1l2.1 1.1v2a8.5 8.5 0 0 1-.6 2.9l-1.2 2.4c-.5 1.4-.8 1.7-1.8 2.1-1 .4-1.2.6-1 1.2.6 1.6.4 2-1.4 2.7-2.3.8-2.8.8-2 0Z"/>
    <path d="M65.2 188.6c-1.8-.8-2.5-1-2.7-.8-.6.5-.7.4-1.6-1a8.3 8.3 0 0 0-2.7-2.6l-2-1.3 1-1.2c.7-.6 1.6-1.7 2.1-2.3 1.5-1.6 1.9-1.7 3.5-1.2l1.5.5v2c0 1.7.1 2.2.8 3.6a8 8 0 0 0 1.2 1.7s1.1-.3 2.3-.9l2.1-1 .7 1.2.6 1.1-.8 1.8-.9 1.7H69c-1 0-2-.4-3.7-1.3Zm8 .1c-.9-.7-1-.8-.7-1.6.2-.5.2-1 0-1.3-.3-.7-.2-1 .8-1.4.8-.4 1-.6 1-2s.1-1.4 1-1.6c.6-.1 1.8 0 2.7.2l1.7.4.5 1.6.7 2c0 .4-.3.7-1.6 1.3-1.5.8-1.6 1-1.5 1.8 0 1 0 1-2.2 1.3-1.3 0-1.6 0-2.4-.7Zm18.6 0-.9-4.8a28 28 0 0 0-1.1-4.8c-.4-.4-5-1.5-5.6-1.3a4 4 0 0 0-1.2.6c-.5.4-.9.6-1 .5l-.2-1.4c-.2-1.2-.1-1.4.8-2.4.6-.6 1.2-1 1.5-1l1.2.4c.5.1 1 0 1.8-.6a4 4 0 0 0 1.1-1c0-.2-.7-.8-1.6-1.5-.8-.7-1.5-1.4-1.5-1.6 0-.1.6-.7 1.3-1.2 1.3-.8 1.7-.9 3.5-.9h2V166c0-1.6.2-1.9.8-2.5.4-.3.7-.8.7-1 0-.3.3-1 .6-1.6.5-1 .6-1.3.3-1.7-.3-.5 0-.7 1.7-1.6a16 16 0 0 1 2.3-1c.1 0 .5.4.7.8.5.7.5.9 0 2.6a6 6 0 0 1-1.5 3l-1 1.1.3 1.5c.6 2.8 1.2 4.8 1.6 4.8.2 0 1-.6 1.9-1.3l1.6-1.3 2.2.6c1.2.3 2.8.6 3.6.6 1.4 0 1.5 0 2.9 1.6l1.4 1.6-2 1.9-2 1.8.5 1.3c.4 1.2.4 1.2-.4 2.4l-1 1.2-1.6-.7c-2.5-1.3-4.4-2-4.8-1.6l-1.5 2.3c-1.2 2-1.2 2-2.5 2l-1.4.1-.4 1.8c-.3 1.4-.5 1.8-1 1.8-.6 0-1 .5-1.2 1.5-.3 1-.7 1.3-.9.8Z"/>
    <path d="m81.8 185.4-.8-2.5c-.4-1.4-.8-2.3-1.1-2.3a27 27 0 0 0-2.2-.5l-1.6-.3V178l.1-1.5 1.3-.4c1.1-.4 1.4-.3 2 0 .3.3.8.5 1 .5.3 0 .5.5.6 1.7.2 2 .5 2 2.2.9l1.2-.9 2.3.6 2.5.6.5 2.5c.4 2.1.4 2.5 0 2.9-.4.3-.5.3-1.2-.2-.5-.4-1-.7-1.3-.7-.3 0-3.5.8-5 1.4l-.5-.1Z"/>
    <path d="M65.7 183.6c-.5-1-.8-2-.9-3.5l-.1-2.1-1.8-.5c-1.7-.6-3-1.6-2.6-2.4 0-.2 2-1.1 4.2-2.2 3.2-1.5 4.2-2 4.5-2.7.5-.8.5-.8 2-.4 1 .3 1 .2 1.9-.4.7-.6 1.2-.7 3.2-.9 1.4 0 2.8-.3 3.1-.5.6-.4.8-.3 2 .3l3.6 2.6c2.2 1.7 2.2 1.8 1.8 2.4-.5.5-1.5.5-2.8 0-.3 0-1 .5-1.8 1.3l-1.4 1.5-.7-.6c-.8-.6-.8-.6-2.7 0l-1.8.4-.1 2c-.1 1.9-.1 2-1 2.2-.8.3-.8.4-.8 1.8s-.1 1.6-.8 2c-.6.3-.7.3-1-.1-.5-.7-.8-.7-2.9.3l-2 .9c-.3 0-.7-.6-1.1-1.4Z"/>
  </g>
  <defs>
    <clipPath id="a">
      <path fill="#fff" d="M.2.5h465v273H.2z"/>
    </clipPath>
  </defs>
</svg>
